<?xml version="1.0" encoding="UTF-8"?><svg id="Layer_1" xmlns="http://www.w3.org/2000/svg" width="406.03" height="608.6" xmlns:xlink="http://www.w3.org/1999/xlink" viewBox="0 0 406.03 608.6"><defs><linearGradient id="linear-gradient" x1="133.31" y1="862.56" x2="226.22" y2="866.65" gradientTransform="translate(145.62 -53.76) scale(.71)" gradientUnits="userSpaceOnUse"><stop offset="0" stop-color="#a81615"/><stop offset="1" stop-color="#c73b3a"/></linearGradient><linearGradient id="linear-gradient-2" x1="25.16" y1="861.3" x2="-67.48" y2="869.48" gradientTransform="translate(145.62 -53.76) scale(.71)" gradientUnits="userSpaceOnUse"><stop offset="0" stop-color="#ab1716"/><stop offset="1" stop-color="#c73b3a"/></linearGradient></defs><g id="Generative_Object"><path d="M86.04,139.99c-16.34,16.12-11.35,74.3-2.84,94.04,5.42,12.58,18.55,25.73,30.52,32.29-1.32,3.15-4.21,5.62-3.55,9.23-19.58-8.93-24.94-16.77-40.81-27.68-1.34-.92-2.57-1.53-2.48.71-3.97-4.67-13.81-16.29-14.9-22-2.64-13.78,2.22-59.73,5.68-74.52,1-4.27,2.73-10.91,4.26-14.9.89-2.34,3.17-4.81,4.26-7.1,7.05-.88,16.68,2.9,19.87,9.94Z" fill="#afbdc3"/><path d="M323.09,123.66c1.38,2.33,1.79,4.53,2.84,6.39l9.94,47.2c-.66,16.48,4.72,34.44,2.84,50.04-1.24,10.23-6.91,13.68-12.78,20.58-2.34-.91-2.14-.48-3.9.71-9.03,6.1-15.75,14.26-26.62,20.58l-5.68-9.94c19.97-15.81,25.54-38.5,26.97-62.81.94-16.04,1.61-45.47-11.36-57.13,3.09-7.2,11.02-12.42,17.74-15.61Z" fill="#afbdc3"/><path d="M110.17,275.55c52.61,24,134.76,23,185.24-6.39,10.86-6.32,17.59-14.48,26.62-20.58,1.76-1.19,1.56-1.62,3.9-.71-15.38,18.09-33.62,30.22-56.43,37.62-10.52,3.41-21.81,4.36-32.29,7.81-1.98-.25-3.55-.68-5.68-.71-1.24-.02-5.75,1.38-7.1,1.42-9.43.28-18.97,1.36-28.39,1.42-4.32.03-8.45-.73-12.78-.71-3.57.01-6.62-.67-9.94-.71-2.51-.03-5.17-.76-7.1-.71s-2.82.58-4.26.71c-1.37-3.75-8.3-1.72-11.71-2.13-31.44-3.75-62.9-19.15-83.4-43.29-.08-2.24,1.14-1.63,2.48-.71,15.87,10.91,21.23,18.75,40.81,27.68Z" fill="#afbdc3"/><path d="M255.67,66.88l31.94,19.52c.54,5.05-38.06,15.65-43.29,8.16,3.52-9.1,6.54-18.52,9.94-27.68.07.02-.29-.64,1.42,0Z" fill="#dbe3e6"/><path d="M86.04,139.99c-3.19-7.03-12.83-10.81-19.87-9.94,3.98-8.4,5.92-11.7,11.36-19.16,10.24,4.08,16.86,12.16,20.58,22.36-3.51,1.74-9.31,4.03-12.07,6.74Z" fill="#dbe3e6"/><path d="M313.16,108.76c4.39,5.8,6.24,8.67,9.94,14.9-6.72,3.2-14.66,8.41-17.74,15.61-2.25-2.03-8.86-4.28-9.58-4.97-2.58-2.45,2.73-12.62,4.61-15.26,2.38-3.34,8.76-8.83,12.78-10.29Z" fill="#dbe3e6"/><path d="M330.9,137.86c3.34,14.05,6.34,28.14,7.81,42.58l2.13,46.13c-.11.03-.66,1.3-2.13.71,1.89-15.6-3.5-33.56-2.84-50.04l-9.94-47.2c1.4,2.48,2.7,6.43,4.97,7.81Z" fill="#dbe3e6"/><path d="M289.74,259.23l5.68,9.94c-50.48,29.39-132.63,30.39-185.24,6.39-.67-3.61,2.23-6.08,3.55-9.23,39.77,21.81,139.55,21.79,176.02-7.1Z" fill="#afbdc3"/><path d="M240.76,61.21c1.63,5.16-2.63,26.1-4.26,32.29-3.15,11.95-9.58,24.37-14.19,35.84-17.66-.82-34.87-.76-52.52,0-9.72-20.32-19.16-43.99-19.16-66.72,12.89-4.24,26.54-6.04,40.1-6.39,16.25-.42,34.31,1.09,50.04,4.97Z" fill="#dbe3e6"/><path d="M254.25,66.88c-3.39,9.16-6.42,18.58-9.94,27.68-4.5,11.64-9.75,23.11-14.19,34.78-2.55-.06-5.24.12-7.81,0,4.62-11.48,11.05-23.9,14.19-35.84,1.63-6.19,5.89-27.14,4.26-32.29,6.56,1.62,8.21,3.81,13.49,5.68Z" fill="#c5201c"/><path d="M242.54,86.76c.58,6.27-3.91,13.89-6.39,19.87l6.39-19.87Z" fill="#eb6761"/><path d="M150.62,61.21v1.42c0,22.73,9.44,46.4,19.16,66.72-2.58.11-5.22-.08-7.81,0l-24.84-62.46c4.96-2.09,8.1-3.83,13.49-5.68Z" fill="#c5201c"/><path d="M148.85,86.76l7.81,22c-1.97-5.33-7.11-14.38-8.16-19.52-.27-1.33-1.15-1.4.35-2.48Z" fill="#eb6761"/><path d="M17.19,165.54l-.35,4.26,11.71-2.48c-.78.27-2.67,2.39-2.84,2.48-3.17,1.7-4.47.66-8.52,4.26s-3.86,6.78-2.84,12.78c1.39,8.11,5.97,11.95,14.19,12.78.02.24-.02.48,0,.71-5.98,4.85-9.62-2.27-13.13-4.26-1-.56-6.41-.56-8.16-3.19-.71-1.07-1.69-12.35-1.42-14.19.37-2.47,4.35-8.78,4.97-11,1.56.51,4.77-1.42,6.39-2.13Z" fill="#ebe7e6"/><path d="M30.68,174.77c-.13,4.79-1.28,9.38-1.42,14.19-6.44,1.86-9.3.02-14.9-2.13-1.03-5.99-1.33-9.07,2.84-12.78,1.35,14.03,18.63,1.06,8.52-4.26.17-.09,2.06-2.22,2.84-2.48l-11.71,2.48.35-4.26c4.29-1.87,8.31-4.28,13.13-3.55.63.45.4,10.98.35,12.78Z" fill="#40515c"/><path d="M57.65,138.57c-6.17,7.78-7,18.77-7.81,28.39-.18,2.12-1.83,17.3-1.06,17.74,5.19,3.04,3.49-14.27,3.9-17.03.04-.28,2.01-4.68,2.13-5.32.44-2.44-.41-8.28,2.84-10.29-3.46,14.79-8.32,60.74-5.68,74.52-13.96-1.86-23.19-7.35-22.71-22.71.04.22,1.83,2.89,2.13,3.9.93,3.2-.57,7.96,3.9,11,.19-1.61,1.63-1.35,1.77-1.77,1.34-4.04.77-22.31,1.42-28.39,1.11-10.3,2.55-22.12,4.26-32.29.27-1.6.41-3.5.71-4.97.37-1.79,2.97-5.23,1.42-7.1,5.46-2.76,6.04-3.66,12.78-5.68Z" fill="#c5201c"/><path d="M42.74,156.31c-1.71,10.18-3.15,22-4.26,32.29-.65,6.08-.08,24.35-1.42,28.39-.14.42-1.59.16-1.77,1.77-4.48-3.05-2.97-7.8-3.9-11-.3-1.02-2.09-3.68-2.13-3.9-.17-1.01-.67-3.13-.71-3.55-.02-.23.02-.47,0-.71-.28-3.47.6-7.03.71-10.65.14-4.81,1.29-9.41,1.42-14.19,1.45-6.25,1.83-12.41,4.26-18.45h7.81Z" fill="#cb3937"/><path d="M61.91,137.15c-1.53,4-3.26,10.63-4.26,14.9-3.25,2.01-2.4,7.85-2.84,10.29-.12.65-2.09,5.04-2.13,5.32l-2.84-.71c.81-9.62,1.64-20.61,7.81-28.39,1.47-.44,2.76-1.14,4.26-1.42Z" fill="#ee5046"/><path d="M43.45,151.34c-.3,1.47-.44,3.37-.71,4.97h-7.81c1.17-2.92,3-8.73,8.52-4.97Z" fill="#fdc7c4"/><path d="M52.68,167.67c-.41,2.76,1.29,20.07-3.9,17.03-.77-.45.89-15.63,1.06-17.74l2.84.71Z" fill="#cb3937"/><path d="M29.26,188.96c-.11,3.61-.99,7.18-.71,10.65-8.22-.82-12.81-4.67-14.19-12.78,5.6,2.15,8.47,3.99,14.9,2.13Z" fill="#132530"/><path d="M25.71,169.8c10.11,5.32-7.17,18.29-8.52,4.26,4.05-3.6,5.35-2.56,8.52-4.26Z" fill="#dbe3e6"/><path d="M26.42,15.78l-.71,45.42c-.43-.29-3.89-.14-4.26-1.42.82-14.57-.61-29.41,0-44,1.34.34,3.66.42,4.97,0Z" fill="#4d606c"/><path d="M28.55,2.3c5.51,4.07,4.31,11.42-2.13,13.49-1.31.42-3.62.34-4.97,0-3.15-.79-2.9-.86-4.26-3.55,1.16-1.91.33-4.2.71-6.39l3.55-2.84c3.6-.47,3.94-1.12,7.45,1.42l-.35-2.13Z" fill="#c5201c"/><path d="M25.71,61.21c2.62,1.76,2.46,4.99,2.84,8.16,3.13,25.87,1.83,54.41,4.26,80.56.05.58-.04,1.19,0,1.77.97.92.65-1.02.71-1.06,4.45-2.93,6.68-4.03,11.36-6.39,1.55,1.86-1.05,5.31-1.42,7.1-5.52-3.76-7.34,2.05-8.52,4.97-2.43,6.05-2.81,12.21-4.26,18.45.05-1.8.28-12.33-.35-12.78-4.82-.73-8.84,1.68-13.13,3.55-1.62.71-4.83,2.64-6.39,2.13,7.21-25.68,9.09-80.26,10.65-107.88.37,1.28,3.82,1.13,4.26,1.42Z" fill="#cb3937"/><path d="M33.52,150.64c-.06.04.26,1.99-.71,1.06-.04-.59.05-1.2,0-1.77l.71.71Z" fill="#ecb2a3"/><path d="M23.93,68.3l3.9,90.49c-.14.5-3.01,1.81-3.19,1.77-4.53-.89-.97-84.26-.71-92.27Z" fill="#eb6761"/><path d="M21.45,3.01l-3.55,2.84c.04-.24-.92-2.43,1.77-3.55,1.58-.66,1.68.72,1.77.71Z" fill="#ebe7e6"/><path d="M313.16,108.76c-4.02,1.46-10.39,6.95-12.78,10.29-1.88,2.64-7.19,12.81-4.61,15.26.72.68,7.33,2.94,9.58,4.97,12.96,11.67,12.3,41.1,11.36,57.13-1.43,24.31-7,47-26.97,62.81-36.47,28.88-136.25,28.91-176.02,7.1-11.97-6.56-25.09-19.72-30.52-32.29-8.51-19.74-13.5-77.92,2.84-94.04,2.75-2.72,8.56-5,12.07-6.74-3.72-10.2-10.35-18.28-20.58-22.36,18-24.7,32.64-32.61,59.62-44l24.84,62.46c-1.56.05-2.87-.31-4.26.71-59.78,2.09-83.2-.51-78.78,68.49,4.11,64.26,51.49,78.19,108.24,79.85,56.57,1.65,120.95-7.41,125.98-75.59,5.27-71.45-15.02-70.54-78.07-72.75-1.74-.15-3.17-.67-4.97-.71,4.44-11.67,9.7-23.14,14.19-34.78,5.23,7.48,43.83-3.11,43.29-8.16l-31.94-19.52c25.21,9.49,40.98,20.06,57.49,41.88Z" fill="#dbe3e6"/><path d="M134.66,69.01c.33,3.73,9.89,22.91,9.23,24.13-.18.32-6.03,3.47-6.39,3.55-5.52,1.14-34.5-2.35-32.29-10.29.75-2.69,25.16-15.98,29.45-17.39Z" fill="#dbe3e6"/><path d="M254.25,106.63c3.56.38,3.36,5.84,2.13,8.16-3.67,6.95-17.02-.55-9.23-8.16,3.17,3.44-2.69,6.08,1.77,9.23,2.42-1.38-1.75-1.94,1.42-4.26,2.67.19,3.81.81,2.84,3.55,4.58-1.13-.28-5.35-.35-6.03-.14-1.27,1.44-2.34,1.42-2.48Z" fill="#2a3d4a"/><path d="M254.25,106.63c.02.14-1.56,1.22-1.42,2.48.08.69,4.94,4.9.35,6.03.97-2.74-.17-3.36-2.84-3.55-3.17,2.31,1,2.88-1.42,4.26-4.46-3.15,1.4-5.79-1.77-9.23,2.13-2.08,3.84-2.34,6.74-2.13-.32.99.27,1.41.35,2.13Z" fill="#6e9fb4"/><path d="M144.24,105.92c-.87,2.48,1.59,6.17.71,7.81-.92-5.01-9.76-3.19-4.97,1.42-6.64-1.25.95-5.21-3.55-8.52,2.23-2.87,5-2.53,7.81-.71Z" fill="#6e9fb4"/><path d="M136.43,106.63c4.5,3.31-3.09,7.27,3.55,8.52,2.44.46,3.22,1.83,4.97-1.42.88-1.64-1.58-5.32-.71-7.81,6.34,4.11,2.32,13.29-5.32,11.36-4.38-1.11-4.93-7.51-2.48-10.65Z" fill="#132530"/><path d="M144.95,113.73c-1.74,3.25-2.53,1.88-4.97,1.42-4.79-4.61,4.05-6.43,4.97-1.42Z" fill="#21789d"/><path d="M333.74,138.57c10.3,10.41,5.95,28.61,9.23,42.23l-4.26-.35c-1.47-14.44-4.47-28.54-7.81-42.58.35.21,2.26.5,2.84.71Z" fill="#ee5046"/><path d="M357.87,156.31c2.5,7.15,2.81,14.24,2.13,21.65l2.13,4.61c0,.24,0,.47,0,.71-.12,13.09,1.48,25.36-6.03,36.2l-1.06-1.06c-1.31-20.68-4.13-41.45-4.97-62.1h7.81Z" fill="#cf4e4e"/><path d="M382,168.38c-2.56.67-5.46-1.79-7.81-2.84-3.94-1.76-7.92-4.72-12.78-3.19.91,6.72.75,13.47.71,20.23l-2.13-4.61c.68-7.41.37-14.5-2.13-21.65-.28-.79.26-3.28-2.48-4.97-9.64-5.92-5.45,1.97-5.32,4.97.84,20.66,3.66,41.43,4.97,62.1l1.06,1.06c7.51-10.84,5.92-23.11,6.03-36.2-.13.82.7.66.71.71.3,1.21,1.46,13.67,1.42,14.9,0,.24.01.47,0,.71-1.1,20.67-6.67,21.75-23.42,26.97l-2.13-46.13,4.26.35c-3.28-13.62,1.07-31.82-9.23-42.23,1.91.7,5.32,1.02,7.45,1.42l18.1,11,7.1-86.59c-.18-1.84-4.38-.84,0-2.48,1.58-.59,3.9-.34,4.97-1.42.01.25,2.03,2.72,2.13,4.61.97,18.36,1.19,92.45,8.52,103.27Z" fill="#c5201c"/><polygon points="367.45 91.02 368.16 160.57 363.55 158.8 367.45 91.02" fill="#ee5046"/><path d="M363.9,102.37l-1.77,50.75c.47,1.42-.7,2.41-1.77,1.77-2.27-1.34,4.21-46.41,3.55-52.52Z" fill="#eb6761"/><path d="M357.87,156.31h-7.81c-.12-3-4.31-10.89,5.32-4.97,2.75,1.69,2.21,4.18,2.48,4.97Z" fill="#fdc7c4"/><path d="M382,168.38c.76,1.12,1.89,1.78,2.13,2.13-2.19,2.5,1.87,5.71,2.13,7.45.77,5.25-1.5,9.65-.71,14.55-.85.72-13.74,8.28-14.55,8.52-1.5.44-6.89,1.41-6.74-1.42.01-.24,0-.47,0-.71,3.49.69,5.11-.52,7.81-2.13,2.23-1.33,2.78-1.56,4.26-3.9,1.27-2.02,1.92-6.67,2.13-7.1.7-1.45,2.7-.85,2.84-1.42.05-.22-1.97-.61-2.13-1.42-.24-1.21.07-9.98-3.19-8.87-.6.2-.96,2.73-1.06,2.84-1.08-3.58-1.5-5.5-5.68-6.39l-5.32-3.55c3.52-.77,10.54,3.65,10.29-1.42,2.35,1.05,5.25,3.51,7.81,2.84Z" fill="#ebe7e6"/><path d="M374.2,165.54c.25,5.07-6.77.64-10.29,1.42l5.32,3.55c-10.08-2.15-6.01,18.93,5.68,6.39.1-.11.47-2.64,1.06-2.84,3.26-1.11,2.96,7.67,3.19,8.87.16.81,2.18,1.2,2.13,1.42-.14.57-2.14-.03-2.84,1.42-.21.43-.86,5.08-2.13,7.1-1.48,2.34-2.03,2.57-4.26,3.9l3.55-8.16c-5.8,1.22-13.01,3.37-10.65-4.97l-2.13.35s-.84.11-.71-.71c0-.24,0-.47,0-.71.04-6.76.2-13.51-.71-20.23,4.86-1.52,8.84,1.44,12.78,3.19Z" fill="#2a3d4a"/><path d="M372.07,196.77c-2.7,1.61-4.31,2.82-7.81,2.13.05-1.23-1.12-13.7-1.42-14.9l2.13-.35c-2.36,8.33,4.85,6.19,10.65,4.97l-3.55,8.16Z" fill="#132530"/><path d="M369.23,170.51c4.18.89,4.6,2.8,5.68,6.39-11.69,12.54-15.76-8.54-5.68-6.39Z" fill="#dbe3e6"/><path d="M370.65,16.49c1.79,14.59-.04,29.39.71,44-1.07,1.08-3.38.83-4.97,1.42V15.78c.7.22,3.68.82,4.26.71Z" fill="#4d606c"/><path d="M370.65,16.49c-.57.11-3.55-.49-4.26-.71-10.63-3.26-5.4-17.48,4.61-15.61,8.33,1.55,7.1,14.89-.35,16.32Z" fill="#c5201c"/><path d="M371.36,3.01l2.84,3.55c.12,1.46,1.41,2.74.35,4.26-12.29,2.85-15.94-9.56-3.19-7.81Z" fill="#a83a39"/><path d="M374.2,6.56l-2.84-3.55c.11.01.52-1.49,2.13-.35,1.81,1.28.68,3.55.71,3.9Z" fill="#f9e7e4"/><path d="M368.16,5.85c2.38-.9,4.85,2.96,2.13,4.26-3.87,1.84-4.57-3.34-2.13-4.26Z" fill="#bf8687"/><path d="M157.72,130.05c24.53-.86,52.36-.88,77.36,0,63.05,2.21,83.34,1.3,78.07,72.75-5.03,68.18-69.41,77.24-125.98,75.59-56.75-1.66-104.13-15.59-108.24-79.85-4.41-69,19-66.4,78.78-68.49Z" fill="#061a44"/><path d="M222.31,129.34c2.57.12,5.26-.06,7.81,0,1.79.04,3.23.56,4.97.71-25.01-.88-52.84-.86-77.36,0,1.39-1.02,2.7-.66,4.26-.71,2.59-.08,5.22.11,7.81,0,17.65-.76,34.87-.82,52.52,0Z" fill="#4f1110"/><path d="M110.17,193.93c.03.49-.69.78-.71,2.13-.01.68-.71.75-.71,1.42,0,.83-1.41.9.35,2.13h62.81c1.12,1.38-.03,1.36,0,1.42l-65.3,1.06,66.01,1.06c.02.85.28.25,0,1.42h-65.65c-1.8,1.18-.25,1.46-.35,2.13-.07.44-.02.96,0,1.42.07,1.8.68,2.02.71,2.13.22.91.24,1.23.71,2.13s.68.67.71.71c.33.46-.82,1.67,1.42,2.84,2.6,1.35,47.75,1.1,53.94.71l3.55,1.42h-55.01c.94,3.16,2.5,5.16,6.03,5.32l-1.06,2.48c1.37.16,2.52.55,3.9.71v.71c-1.48,1.65,1.07,2.67,2.84,2.84-1.54,2.47-.5,1.58.71,2.13,1.58.72,1.86.64,3.55.71.02,6.92,12.68,10.21,17.74,6.39-.16,1.66,1.97,3.05,3.19,3.55,12.83,5.28,82.52.91,98.3-2.13,3.07-.59,13.54,2.27,12.78-4.97,2.33-.3,4.94.91,3.55-2.84,1.37-.15,2.28.23,3.55-.71,1.01-.75.76-1.02.71-2.13.88-.11,3.23-.98,3.55-2.13.1-.37-.05-.96,0-1.42,1.92-.45,5.94-3.37,6.39-4.97.1-.37-.05-.96,0-1.42,2.32-.65,2.89-.11,2.13-2.13-.12-.3.06-.97,0-1.42,1.2-.19,2.34.38,2.84-1.42.1-.37-.05-.96,0-1.42.43-.07,1.06-.47,1.42-.71.72-.49,1.08-1.89,1.42-2.84.23-.63.6-.83.71-1.42.12-.66-.02-1.44,0-2.13.02-.47.02-.95,0-1.42-.07-1.62-.62-2.37-.71-2.84-.11-.64-.54-.75-.71-1.42-.1-.4.11-1.04,0-1.42-.06-.22.07-.5,0-.71,3.58-1.9,10.32,7.08,11,7.1,1.73.05,1.08-2.83,2.84-2.84.43,0,5.26,4.7,7.45,4.26-6.88,58.6-71.99,67.06-120.3,65.3-52.04-1.9-97.69-15.63-101.14-74.52,1.85-.57,7.05,2.85,7.45,2.84,1.56-.03,16.74-16.78,17.39-7.1Z" fill="#17618c"/><path d="M114.43,185.41v.71c-1.12-.05-.53,1.07-.71,1.42-.23.46-.47.96-.71,1.42s-1.03,1.27-1.42,2.13c-.23.52-.57.87-.71,1.42-.1.39.05.97,0,1.42h-.71c-.65-9.69-15.83,7.07-17.39,7.1-.4,0-5.6-3.41-7.45-2.84-.14-2.41.02-4.75,0-7.1,10.74-.9,19.44-11.86,30.52-11-6.02.75-9.45,5.09-1.42,5.32Z" fill="#1c4987"/><path d="M224.44,192.51c19.08.23,38.38,1.86,57.49,0,.7,1.27.53,1.77.71,2.13l-59.97,1.42,60.68-.71c.48,1.09.46,1.47.71,2.13l-62.46,1.77,63.88.35c.11.38-.1,1.02,0,1.42l-65.3,1.77,66.01-.35c.08.47.64,1.22.71,2.84l-67.43.35,67.43,1.06c-.02.68.12,1.47,0,2.13l-67.43.35,66.72,1.06c-.34.94-.7,2.34-1.42,2.84l-62.81-1.42,61.39,2.13c-.05.46.1,1.05,0,1.42l-59.97-.71v2.13c17.33-1.93,40.51,2.58,57.13,0,.06.45-.12,1.11,0,1.42h-55.01l.71,2.13h52.17c-.05.46.1,1.05,0,1.42h-50.75c4.1,1.87,1.89,4.26,4.26,4.97,1.92.57,37.93.51,40.1,0-.05.46.1,1.05,0,1.42-8.07.33-30.77-2.82-37.26-.71-1.14.37-1.14,1.76,0,2.13,1.6.52,31.37.99,33.71.71.05,1.11.3,1.37-.71,2.13l-29.45-1.42c-1.14.65-1.2,1.7,0,2.13s23.68.24,25.91,0c1.39,3.75-1.22,2.54-3.55,2.84-5.42.7-22.71-2.84-12.78,4.97-15.78,3.04-85.47,7.41-98.3,2.13-1.22-.5-3.36-1.89-3.19-3.55,2.66-2.01-.14-2.74,1.06-3.55s4.36,1.83,2.48-2.84c1.56-.12,6.53.6,3.9-2.13l-28.74,1.42c-1.21-.55-2.25.34-.71-2.13,3.29.32,27.7.41,30.87,0,.24-.03,3.2-1.35,3.19-1.77l-36.91-1.06v-.71c3.71.43,36.85.63,38.68,0,.68-.24,5.93-7.51,7.45-8.52l-3.55-1.42c1.61-.1,7.34.71,4.61-2.13l-58.55,1.42c-2.24-1.17-1.09-2.38-1.42-2.84l61.39-1.42-62.1.71c-.47-.9-.49-1.22-.71-2.13l65.3-1.06-66.01-1.06c-.02-.46-.07-.98,0-1.42h65.65c1.81-1.15.21-1.52.35-2.13.28-1.17.02-.57,0-1.42-.03-1.15-.31-1.27-.71-2.13-.03-.06,1.12-.04,0-1.42-.57-.7-.97-1.6-1.77-2.13h-61.39c0-.67.7-.74.71-1.42h60.68c.87-.29-.71-1.15-.35-1.42,1.14-.87.34-2.19,3.19-2.84,7.74-1.75,41.05.58,51.46.71Z" fill="#21789d"/><path d="M235.08,174.77c-.11.48-.45,1.02-.71,1.42-.49.78-.66,1.36-.71,1.42-.35.47-1.33.97-2.13,2.13-.26.37-.6.96-.71,1.42-1.02.23-1.01.88-1.42,1.42-.51.68-1.07.8-.71,2.13-.55.1-.85.46-1.42.71-2.17.95-2.35,3.84-2.84,5.68-.21.79-1.29,1.27,0,1.42-10.41-.13-43.72-2.46-51.46-.71-2.85.65-2.06,1.97-3.19,2.84-.81.12-.61-.56-.71-.71-.47-.72-.66-.66-.71-.71-.08-.09.07-1.8-1.06-2.13h-55.72c.38-.86,1.18-1.68,1.42-2.13l53.94.35-53.23-1.77c.18-.35-.41-1.47.71-1.42l51.1-.35c-16.42-2.18-33.17-.76-49.68-1.06-.35-1.33.18-1.44.71-2.13l45.07.71c2.17-1.42-.33-2.02-.35-2.13-.11-.43.11-1.31,0-1.42-.22-.2-.56-1.54-1.42-1.42.08-.68-.14-1.47,0-2.13.58-2.81,6.6-3.98,8.87-4.26,19.18-2.36,47.3,1.87,66.36,2.84Z" fill="#17618c"/><path d="M239.34,168.38v.71l-.35,1.42,28.04-.71c.92.42.89,1.39,1.42,2.13l-31.58,1.42h33c.12.3-.06.97,0,1.42-7.88-1.69-25.41.47-34.78,0-19.07-.97-47.18-5.2-66.36-2.84-2.27.28-8.29,1.45-8.87,4.26h-.71l-36.91-1.42c.12-.3.64-1.38.71-1.42,8.04-.36,26.03,2.66,33,.71,1.68-.47.27-2.06.35-2.13,4.88-3.98,5.9-.98,10.29-2.13.65-.17,3.89-3.36,4.97-3.55,3.36-.59,12.41,1.44,16.32,1.42,15.29-.09,30.29,1.83,44,1.42,5.05-.15,1.39,1.67,7.45-.71Z" fill="#1c4987"/><path d="M306.77,207.42c-2.19.44-7.02-4.26-7.45-4.26-1.76,0-1.11,2.88-2.84,2.84-.68-.02-7.42-9-11-7.1-.03-.1-.95-.16-1.42-1.42-.25-.66-.23-1.04-.71-2.13-.42-.95-.69-.66-.71-.71-.18-.36-.01-.86-.71-2.13-.24-.43-.46-1-.71-1.42-.22-.37-.48-1.09-.71-1.42-.46-.67-.93-1.49-1.42-2.13-.24-.31.57-2.11-.71-2.13-2.05-1.41-45.48-1.48-49.68-.71-.36-1.33.2-1.45.71-2.13l46.84-.35c0-2.27-43.21-1.57-45.42-1.06.11-.46.45-1.05.71-1.42l42.23.71-40.1-2.84c.05-.06.22-.64.71-1.42,7.64-.29,30.56,2.75,36.55.71.22-.08,1.4-1.06.71-1.42-.53-.93-1.12-.57-1.77-.71-.06-.45.12-1.12,0-1.42-.44-1.14-1.35-1.32-1.42-1.42-.53-.74-.5-1.71-1.42-2.13-.07-.03.09-.4-1.42-.71.16-1.24.13-1.33-.71-2.13-1.3-1.24-19.11-1.84-21.65-1.42-.38.06-1.67,1.38-1.77,1.42-.88.36-.33.72-2.13,1.42-6.07,2.38-2.4.56-7.45.71-13.72.41-28.71-1.51-44-1.42-3.91.02-12.97-2.01-16.32-1.42-1.08.19-4.32,3.38-4.97,3.55-4.39,1.15-5.41-1.85-10.29,2.13-8.31,1.2-27.36-2.21-33.36,1.42-.07.04-.59,1.12-.71,1.42-.12.29-2.55.65-.35,2.13l37.26-.71h.71c-.14.66.08,1.45,0,2.13l-41.17,1.06,42.58.35c.11.11-.11.99,0,1.42-10.83,2.02-34.34-2.68-43.65,0-.52.15-.84,1.12-1.06,1.42-.53.69-1.06.8-.71,2.13-1.77-.03-1.34.71-1.42.71-8.03-.23-4.6-4.57,1.42-5.32-11.08-.86-19.78,10.1-30.52,11-.32-40.18,3.48-48.01,44.36-51.81,30.91-2.87,133.39-4.95,159.69,4.26,21.68,7.59,19.6,45.03,17.39,63.88Z" fill="#1e3578"/><path d="M229.41,182.57c.41-.54.4-1.18,1.42-1.42,2.21-.51,45.42-1.21,45.42,1.06l-46.84.35Z" fill="#6dc0e0"/><path d="M269.86,174.77c.66.14,1.24-.22,1.77.71.69.35-.49,1.34-.71,1.42-5.99,2.04-28.92-1-36.55-.71.26-.4.6-.94.71-1.42,9.36.47,26.89-1.69,34.78,0Z" fill="#b5e1f6"/><path d="M231.54,179.73c.79-1.16,1.78-1.66,2.13-2.13l40.1,2.84-42.23-.71Z" fill="#b5e1f6"/><path d="M264.89,166.96h-23.42c.1-.04,1.39-1.36,1.77-1.42,2.54-.42,20.34.18,21.65,1.42Z" fill="#dbe3e6"/><path d="M246.09,162.7c2.47-.63,13.4-.39,15.26,1.77-1.82.69-17.31.12-17.03-.71.55-.07,1.51-1,1.77-1.06Z" fill="#edfcfc"/><path d="M249.63,160.57c1.52-.35,6.18-.42,7.45,1.06l-8.87.35c-.75-.36,1.32-1.4,1.42-1.42Z" fill="#739bc1"/><path d="M159.14,176.19l-37.26.71c-2.19-1.48.24-1.84.35-2.13l36.91,1.42Z" fill="#b5e1f6"/><path d="M159.85,178.32c.86-.12,1.2,1.22,1.42,1.42l-42.58-.35,41.17-1.06Z" fill="#b5e1f6"/><path d="M156.3,171.93c-.08.07,1.32,1.66-.35,2.13-6.98,1.95-24.96-1.07-33-.71,6-3.63,25.05-.22,33.36-1.42Z" fill="#b5e1f6"/><path d="M126.14,169.09c9.38.63,19.57-1.32,28.74,1.06l-13.13.35-15.61-1.42Z" fill="#d7f0fb"/><path d="M128.27,166.25c7.66.65,16.37-1.35,23.78,1.06-4.08.62-8.31.38-12.42.35-2.77-.02-9.67,1.18-11.36-1.42Z" fill="#dbe3e6"/><path d="M133.24,162.7c1.09-.3,15.26.15,15.26,1.06-2.07,1.86-17.08,1.44-17.03,0,.56-.08,1.49-.99,1.77-1.06Z" fill="#f9fcfc"/><path d="M136.78,160.57l6.74,1.06c-1.07.23-7.69,1.5-6.74-1.06Z" fill="#739bc1"/><path d="M227.28,185.41h51.1c1.28.02.47,1.82.71,2.13l-53.23,1.06,54.65,1.06c.23.33.49,1.05.71,1.42h-56.78c.49-1.84.67-4.73,2.84-5.68Z" fill="#217eb7"/><path d="M279.09,187.54c.49.64.96,1.46,1.42,2.13l-54.65-1.06,53.23-1.06Z" fill="#6dc0e0"/><path d="M284.06,197.48c.47,1.26,1.39,1.32,1.42,1.42.07.21-.06.49,0,.71l-63.88-.35,62.46-1.77Z" fill="#6dc0e0"/><path d="M278.38,185.41h-51.1c.57-.25.87-.61,1.42-.71,4.21-.77,47.63-.7,49.68.71Z" fill="#6dc0e0"/><path d="M281.22,191.09c.25.42.47.99.71,1.42-19.11,1.86-38.41.23-57.49,0-1.29-.15-.21-.63,0-1.42h56.78Z" fill="#6dc0e0"/><path d="M282.64,194.64s.29-.24.71.71l-60.68.71,59.97-1.42Z" fill="#6dc0e0"/><path d="M268.44,171.93c.07.1.98.28,1.42,1.42h-33l31.58-1.42Z" fill="#b5e1f6"/><path d="M265.6,169.09c1.51.31,1.35.68,1.42.71l-28.04.71.35-1.42c7.56,1.07,19.24-1.43,26.26,0Z" fill="#d7f0fb"/><path d="M264.89,166.96c.84.79.87.89.71,2.13-7.02-1.43-18.7,1.07-26.26,0v-.71c1.8-.7,1.25-1.06,2.13-1.42h23.42Z" fill="#217eb7"/><path d="M278.38,221.61c-.45,1.6-4.47,4.52-6.39,4.97-2.17.51-38.18.57-40.1,0-2.37-.71-.15-3.1-4.26-4.97h50.75Z" fill="#57c6dd"/><path d="M286.9,205.29c.02.47.02.95,0,1.42l-67.43-1.06,67.43-.35Z" fill="#6dc0e0"/><path d="M285.48,201.03c.17.66.6.78.71,1.42l-66.01.35,65.3-1.77Z" fill="#6dc0e0"/><path d="M283.35,215.22c-.5,1.8-1.64,1.23-2.84,1.42-16.62,2.58-39.8-1.93-57.13,0v-2.13l59.97.71Z" fill="#57c6dd"/><path d="M286.9,208.83c-.11.59-.48.79-.71,1.42l-66.72-1.06,67.43-.35Z" fill="#79dbea"/><path d="M280.51,218.06c.76,2.01.19,1.48-2.13,2.13h-52.17l-.71-2.13h55.01Z" fill="#57c6dd"/><path d="M284.77,213.09c-.36.24-.99.64-1.42.71l-61.39-2.13,62.81,1.42Z" fill="#6dc0e0"/><path d="M271.99,228c-.32,1.15-2.66,2.02-3.55,2.13-2.34.28-32.11-.19-33.71-.71-1.14-.37-1.14-1.76,0-2.13,6.5-2.11,29.19,1.04,37.26.71Z" fill="#6dc0e0"/><path d="M260.64,235.81c.77,7.24-9.71,4.38-12.78,4.97-9.93-7.81,7.35-4.27,12.78-4.97Z" fill="#349db8"/><path d="M267.73,232.26c-1.27.94-2.18.56-3.55.71-2.23.24-24.69.44-25.91,0s-1.14-1.48,0-2.13l29.45,1.42Z" fill="#4eb4cd"/><path d="M115.85,184.7c16.51.31,33.26-1.11,49.68,1.06l-51.1.35v-.71c.08,0-.35-.74,1.42-.71Z" fill="#6dc0e0"/><path d="M161.27,181.15c.03.1,2.53.71.35,2.13l-45.07-.71c.23-.3.54-1.27,1.06-1.42,9.31-2.68,32.82,2.02,43.65,0Z" fill="#6dc0e0"/><path d="M167.66,218.06c-1.52,1.01-6.77,8.28-7.45,8.52-1.83.63-34.97.43-38.68,0-1.39-.16-2.54-.55-3.9-.71l1.06-2.48c-3.53-.16-5.09-2.16-6.03-5.32h55.01Z" fill="#6dc0e0"/><path d="M172.63,204.58c-.14.61,1.45.98-.35,2.13h-65.65c.11-.67-1.45-.95.35-2.13h65.65Z" fill="#6dc0e0"/><path d="M149.91,232.97c1.88,4.67-1.31,2.05-2.48,2.84s1.6,1.54-1.06,3.55c-5.06,3.82-17.72.53-17.74-6.39,5.8.23,15.67.43,21.29,0Z" fill="#349db8"/><path d="M171.92,201.03c.4.86.68.98.71,2.13l-66.01-1.06,65.3-1.06Z" fill="#6dc0e0"/><path d="M171.92,199.61h-62.81c-1.77-1.23-.35-1.3-.35-2.13h61.39c.81.53,1.2,1.43,1.77,2.13Z" fill="#6dc0e0"/><path d="M164.11,216.64c-6.19.39-51.34.64-53.94-.71l58.55-1.42c2.73,2.84-3,2.03-4.61,2.13Z" fill="#57c6dd"/><path d="M107.33,210.25c-.03-.11-.64-.33-.71-2.13l66.01,1.06-65.3,1.06Z" fill="#57c6dd"/><path d="M108.75,213.09s-.24.19-.71-.71l62.1-.71-61.39,1.42Z" fill="#57c6dd"/><path d="M124.36,230.13c-1.77-.17-4.32-1.19-2.84-2.84l36.91,1.06c0,.43-2.95,1.74-3.19,1.77-3.17.41-27.58.32-30.87,0Z" fill="#57c6dd"/><path d="M169.08,193.93c.1.15-.11.83.71.71-.36.27,1.23,1.13.35,1.42h-60.68c.02-1.34.74-1.64.71-2.13h58.91Z" fill="#6dc0e0"/><path d="M149.91,232.97c-5.63.43-15.49.23-21.29,0-1.69-.07-1.97.01-3.55-.71l28.74-1.42c2.63,2.73-2.35,2.01-3.9,2.13Z" fill="#4eb4cd"/><path d="M113.01,188.96c.24-.46.48-.95.71-1.42l53.23,1.77-53.94-.35Z" fill="#6dc0e0"/><path d="M168.37,193.22c.04.05.24-.01.71.71h-58.2c.05-.45-.1-1.03,0-1.42l57.49.71Z" fill="#2d8ec0"/><path d="M168.37,193.22l-57.49-.71c.14-.55.48-.9.71-1.42h55.72c1.14.33.99,2.04,1.06,2.13Z" fill="#6dc0e0"/><path d="M106.62,374.21c-3.23,3.63-9.32,2.65-12.07-1.42.05-.06.2-.63.71-1.42,5.24-8.13,13.9-26.86,17.74-36.2-1.6,13.64-6,25.18-6.39,39.04Z" fill="#2a3d4a"/><path d="M115.85,339.43c-1.01,6.36-2.55,12.76-3.55,19.16-.7,4.46-.8,9.09-1.42,13.49-.27,1.91-1.56,13.88-2.48,14.19-2.89,1-1.86-9.11-1.77-12.07.39-13.86,4.79-25.39,6.39-39.04.18-.43,2-1.89,2.84-4.61.43-1.4-1.79-.7-1.42-2.13.5-1.93,5.69-9.1,2.13-11.71l3.55-4.26c.62,1.44-3.66,23.23-4.26,26.97Z" fill="#132530"/><path d="M120.11,312.46l-3.55,4.26-21.29,54.65c-.51.79-.66,1.36-.71,1.42-1.01,1.38-2.87,3.98-4.97,3.55-.32-.9-12.54-9.26-14.9-12.07-3.15-3.73-4.6-7.61-6.39-12.07l1.77-1.42c2.71,3.55,8.46,13.24,14.19,10.65,4.29-1.94,16.55-28.95,19.52-34.78,1.42-2.78,6.83-16.58,8.87-17.03.95-.21,7.02,1.85,7.45,2.84Z" fill="#c5201c"/><path d="M103.78,326.65c-2.97,5.82-15.22,32.84-19.52,34.78-5.74,2.6-11.49-7.1-14.19-10.65l-1.77,1.42c-5.43-13.51-11.97-41.4,2.48-51.1,8.13-5.46,27.6-5.89,35.49,0,9.65,7.2-2.87,16.83-2.48,25.55Z" fill="#cb3937"/><path d="M85.68,301.81c22.28-.59-8.27,25.4-13.84,12.42-3.15-7.35,8.23-12.27,13.84-12.42Z" fill="#f9a5a2"/><path d="M113.01,335.17c-3.84,9.33-12.5,28.07-17.74,36.2l21.29-54.65c3.56,2.61-1.62,9.78-2.13,11.71-.37,1.43,1.85.73,1.42,2.13-.84,2.73-2.66,4.18-2.84,4.61Z" fill="#202228"/><path d="M88.17,397.63c3.58,3.04,2.21,7.97,0,11.36-2.03.46-3.5,2-6.39,2.13-13.12.61-26.63-7.8-26.26-22l7.45-6.39c-4.11,8.18,2.52,19.08,10.65,21.29.51.14,10.15.19,10.65,0,2.13-.79,3.45-4.2,3.9-6.39Z" fill="#132530"/><path d="M58.36,381.3c-2.16,2.73-2.75,4.43-2.84,7.81-.37,14.21,13.14,22.61,26.26,22,.72,1.17,2.74,1.14-.35,1.42-9.58.88-13.9,1.72-22-4.97-.87.14-7.94,13.36-8.87,15.26-2.63,5.34-7.27,22.64-12.42,23.78-1.85.41-9.26-.48-9.94,0-1.71,1.2,1.7,7.94-5.32,7.1-13.59-1.63-4.51-20.47-1.42-28.04s23.1-42.87,30.16-45.07c2.17-.68,5.55.77,6.74.71Z" fill="#dbe3e6"/><path d="M81.78,411.11c2.89-.13,4.35-1.67,6.39-2.13.07-.02,1.08,0,1.42,0,1.21,4.56-8.74,5.16-9.23,6.03-.36.66.36,3.6,0,4.26-1.96,3.55-12.03,19.66-12.07,22-.06,3.58,2.45,1.96,2.13,5.68-.12,1.39-3.98,5.44-4.26,6.39-1.45,4.86-.27,12.78-5.68,17.39-12.36-5.37-25.08-11.94-37.62-15.61v-1.42c7.02.84,3.62-5.89,5.32-7.1.67-.48,8.09.41,9.94,0,5.15-1.13,9.79-18.44,12.42-23.78.94-1.9,8-15.12,8.87-15.26,8.1,6.69,12.43,5.84,22,4.97,3.1-.28,1.08-.25.35-1.42Z" fill="#dbe3e6"/><path d="M73.97,477.83c-3.22-3.03-9.34-5.3-13.49-7.1,5.4-4.61,4.23-12.53,5.68-17.39.28-.95,4.14-4.99,4.26-6.39.32-3.72-2.19-2.1-2.13-5.68.04-2.34,10.11-18.46,12.07-22,.36-.66-.36-3.6,0-4.26.48-.87,10.44-1.47,9.23-6.03.14,0,1.43-1.88,2.84.35-.14,4.01.19,8.06,0,12.07-.37,7.66-8.01,49.43-12.07,53.94-2.49,2.77-3.69,1.13-6.39,2.48Z" fill="#afbdc3"/><path d="M69,479.96c-1.07.05-3.35.11-4.26.71-1.93-.96-8.09-1.69-10.65-2.13,8.29-3.76-8.75-7.98-12.42-9.94-3.29-1.75-14.01-9.95-17.03-8.52-1.2.57,1.72,2.79-.71,2.84-1.73-1.49-1.06-4.35-1.06-6.39l46.13,23.42Z" fill="#4d606c"/><path d="M60.49,470.73c4.14,1.8,10.26,4.07,13.49,7.1-1.24.62,1.13,1.83-4.97,2.13l-46.13-23.42v-1.42c12.53,3.68,25.26,10.24,37.62,15.61Z" fill="#2a3d4a"/><path d="M66.87,484.93c1.99,6.47,6.82,4.87,9.94,10.29s3.2,23.19-6.03,20.94c-6.35-1.55-3.46-13.23-4.61-16.68-.22-.67-9.06-6.89-9.23-10.29,3.17-1.48,6.41-4.03,9.94-4.26Z" fill="#2a3d4a"/><path d="M45.58,511.19c6.7,4.51,2.81,9.53,3.55,13.84.65,3.78,10.49,13.06,0,13.13-2.14-4.34-6.44-13.12-11.36-14.19-.53-4.05.18-5.47,0-9.23,0-2.89,6.85-2.95,7.81-3.55Z" fill="#2a3d4a"/><path d="M22.16,516.87c-5.42,6.54,15.67,28.59,1.42,27.68.03-6.54-4.28-25.2-13.49-17.03-.22-2.88,1.7-5.62,1.42-6.74-.51-2.03-5.12-1.16-4.26-4.61,4.62,1.09,10.16.9,14.9.71Z" fill="#2a3d4a"/><path d="M54.1,478.54c2.56.44,8.72,1.16,10.65,2.13,4.72,2.36,1.89,3.49,2.13,4.26-3.53.23-6.77,2.78-9.94,4.26-2.01.94-3.53,2.02-5.68,2.84-.09.04-1.32-1.45-1.42-1.42-1.37-4.32-.11-8.35-1.42-12.78,2.04-.41,3.78.38,5.68.71Z" fill="#991617"/><path d="M23.58,544.55c-4.56-.29-13.14-12.58-13.49-17.03,9.21-8.17,13.52,10.49,13.49,17.03Z" fill="#2a3d4a"/><path d="M49.13,538.16c-8.12.05-10.45-7.26-11.36-14.19,4.92,1.07,9.21,9.86,11.36,14.19Z" fill="#4d606c"/><path d="M49.84,490.6c.1-.03,1.33,1.46,1.42,1.42-3.56,5.63.56,15.28-5.68,19.16-.95.59-7.81.66-7.81,3.55-1.91-.98-4.26.31-6.39.71-.65.12-.93.53-2.13.71-1.98.29-5.09.63-7.1.71-4.74.19-10.28.38-14.9-.71-13.95-3.29-4.25-22.14,0-30.52l-5.68,19.52c7.59,6.18,43.97,4.96,46.84-4.26,1.61-5.16-3.13,1.3-4.26-1.42s2.2-4.03,2.13-4.26c-.13-.44-5.25-2.19,3.55-4.61Z" fill="#c5201c"/><path d="M48.42,477.83c1.3,4.43.05,8.45,1.42,12.78-8.8,2.42-3.67,4.18-3.55,4.61.07.23-3.24,1.58-2.13,4.26s5.86-3.74,4.26,1.42c-2.87,9.22-39.25,10.44-46.84,4.26l5.68-19.52c6.82-13.43,15.8-26.68,32.29-17.74,2.87,1.55,7.98,6.91,8.87,9.94Z" fill="#cb3937"/><path d="M23.22,472.86c10.28-2.08,10.78,20.15,1.42,22-23.4,4.62-9.74-20.32-1.42-22Z" fill="#f2857d"/><path d="M89.59,376.34c.75,2.13-2.06,6.05-2.13,8.52h-.71l-1.06-1.42c-2.62,7.52-8.17,3.84-13.13,1.06.36,7.97,12,2.04,11.36,7.45-3.62,4.26-12.83-1.91-14.19-6.03-.45-1.35,1.52-2.53.35-3.9-9.27,12.92,12.45,20.85,18.1,8.52-.16,1.56.18,6.22,0,7.1-.45,2.19-1.77,5.6-3.9,6.39-.5.19-10.13.14-10.65,0-8.13-2.22-14.76-13.11-10.65-21.29l-7.45,6.39c.09-3.38.67-5.07,2.84-7.81,6.76-.32,3.92-1.95,7.45-2.84,2.01-.51,4.76,1.51,6.03.35,1.06-.96,2.28-12.32,2.84-14.55,2.37,2.8,14.58,11.16,14.9,12.07Z" fill="#4d606c"/><path d="M83.91,391.95c1.88-2.22,1.79-4.6,2.84-7.1h.71c-.03,1.03.94,3.41.71,5.68-5.65,12.33-27.37,4.4-18.1-8.52,1.17,1.38-.8,2.55-.35,3.9,1.37,4.12,10.58,10.29,14.19,6.03Z" fill="#132530"/><path d="M86.75,384.85c-1.05,2.5-.96,4.88-2.84,7.1.64-5.41-11,.52-11.36-7.45,4.96,2.78,10.51,6.46,13.13-1.06l1.06,1.42Z" fill="#637a86"/><path d="M74.33,375.63l7.45,4.61c-2.92-.05-8.25.2-7.45-4.61Z" fill="#9eaaae"/><path d="M84.97,378.46c3.37-.82.75,2.87,0,2.84-1.01-.04-1.51-2.47,0-2.84Z" fill="#7c8b96"/><path d="M303.22,357.88l-13.49-23.78c2.99,13.3,4.99,26.09,7.81,40.1-3.47,3.6,3.68,12.6-3.55,12.07-.76-17.61-5.06-38.4-7.81-56.07-.47-3.03-3.85-15.48-3.55-17.03.18-.96.68-.67.71-.71,9.02,13.2,13.35,30.45,19.87,45.42Z" fill="#132530"/><path d="M303.22,357.88c.46,1.06.52,1.7.71,2.13.74,1.66,1.34,3.3,2.13,4.97.88,1.84,2.14,6.59,2.84,7.81-3.37,2.79-7.7,5.51-11.36,1.42-2.82-14.02-4.82-26.8-7.81-40.1l13.49,23.78Z" fill="#2a3d4a"/><path d="M299.67,327.36c2.41,4.7,16.31,32.85,18.81,34.07,7.97,3.89,13.62-13.25,14.9-13.49,3.99-.73-.23,8.62-1.06,10.65s-1.95,3.01-2.84,4.97c-5.4,4.03-9.42,10.24-16.32,12.07-.14-.22-3.56-1.62-4.26-2.84s-1.96-5.97-2.84-7.81l-2.13-4.97c-.19-.43-.25-1.07-.71-2.13-6.53-14.98-10.86-32.22-19.87-45.42.87-1.06,6.37-3.09,7.45-2.84,2.16.5,7.3,14.66,8.87,17.74Z" fill="#c5201c"/><path d="M332.32,358.59c.84-2.03,5.06-11.38,1.06-10.65-1.28.23-6.94,17.38-14.9,13.49-2.5-1.22-16.4-29.37-18.81-34.07-4.34-15.84-14.24-27.81,10.29-30.52,41.01-4.54,35.36,37.07,22.36,61.75Z" fill="#cb3937"/><path d="M323.09,318.14c-.23-.02-1.59-.53-2.13-.71-3.05-1.02-13-9.86-12.07-13.13,1.31-4.59,25.58-2.99,22.71,9.23-.83,3.54-5.28,4.94-8.52,4.61Z" fill="#f9a5a2"/><path d="M323.09,318.14c3.23.32,7.69-1.07,8.52-4.61,2.87-12.22-21.4-13.81-22.71-9.23-.93,3.27,9.02,12.11,12.07,13.13-8.84,3.25-3.66,1.2-5.68-1.06-4.74-5.31-11.43-6.9-8.52-16.32,6.29-4.37,27.99.71,29.81,7.81.52,2.05-2.22,11.66-5.32,12.42-.41.1-9.06-.16-8.16-2.13Z" fill="#cb3937"/><path d="M306.06,364.98c-.79-1.66-1.39-3.31-2.13-4.97l2.13,4.97Z" fill="#701e20"/><path d="M382.71,455.83c-1.25-3.16-6.83,2.7-9.23,1.42,2.74-2.38,6.37-6.32,3.55-10.29-.79-1.11-8.57.22-10.29-.35-2.07-.7-15.02-34.75-19.16-39.04-8.62,6.15-13.08,6.29-23.42,4.97l1.06-1.42c15.85,1.25,33.21-15.39,22-29.81.41-.04,3.83-2.5,7.45-1.42,6.04,1.8,24.85,32.56,28.04,39.39,1.58,3.38,1.26,8.09,1.42,8.52.27.73,1.7-1.16,2.13,0,1.9,5.17,6.74,17.16,4.26,22-.23.44-6.44,4.93-7.81,6.03Z" fill="#dbe3e6"/><path d="M373.49,457.25c-7.12,6.19-19.5,9.56-28.39,13.49-2.38-4.91-1.34-13.2-2.84-17.39-.45-1.25-3.25-1.99-3.55-2.84-.57-1.65.58-6.2,0-7.81-.08-.21-3.18-1.67-3.55-2.84-.61-1.96-2.51-9.11-2.84-10.65-.41-1.91-.3-13.61-.71-14.19-.5-.71-15.03.09-14.9-6.03.5.11.79-.2.71-.71,1.49,1.91,5.46,2.65,7.81,2.84l-1.06,1.42c10.34,1.32,14.8,1.18,23.42-4.97,4.14,4.28,17.09,38.34,19.16,39.04,1.72.58,9.5-.75,10.29.35,2.82,3.97-.81,7.91-3.55,10.29Z" fill="#dbe3e6"/><path d="M316.71,408.98c-.13,6.12,14.41,5.33,14.9,6.03.41.58.3,12.28.71,14.19.33,1.54,2.23,8.68,2.84,10.65.36,1.17,3.47,2.63,3.55,2.84.58,1.61-.57,6.16,0,7.81.29.85,3.1,1.59,3.55,2.84,1.5,4.19.46,12.48,2.84,17.39-3.93,1.73-9.86,4-12.78,7.1-2.56-1.39-4.09.33-6.39-2.48-3.19-3.92-11.63-47.02-12.07-53.94-.25-3.88-1.67-13.4,2.84-12.42Z" fill="#9eaaae"/><path d="M317.42,397.63c-.05-.22.31-4,1.42-4.26,7.33,8.5,25.49-.11,17.39-12.07,7.22-.33,9.68,4.65,8.16,11-2.41,10.09-24.36,17.72-26.97,5.32Z" fill="#4d606c"/><path d="M329.48,363.56c-.93,2.05-1.84,4.02-2.84,6.03l3.19-2.48c2.2-.08,3.14,9.95,3.9,11,1.06,1.46,4.95.33,7.45,1.06,2.29.67-.08,2.77,6.03,2.13,11.21,14.42-6.16,31.06-22,29.81-2.35-.19-6.32-.93-7.81-2.84-1.74-2.22-2.41-8.61,0-10.65,2.62,12.4,24.56,4.77,26.97-5.32,1.52-6.35-.95-11.33-8.16-11,8.1,11.95-10.06,20.56-17.39,12.07-3.96-4.6-.37-7.83-.71-9.58-.09-.47-4.25-7.02-4.97-8.16,6.9-1.83,10.92-8.03,16.32-12.07Z" fill="#132530"/><path d="M319.19,383.43c.51-.26,3.24,4.09,5.68,4.26s9.21-5.72,9.58-3.19c.2,3.47-9.82,4.92-10.29,5.32-1.46,1.25,1.19,4.42-.71,4.26-2.28-.59-5.46-10.03-4.26-10.65Z" fill="#4d606c"/><path d="M382.71,455.83c-9.63,7.79-23.86,11.82-33.71,18.45-.21.14-3.86-.22-2.48,2.48.71,1.4,5.79-2.24,4.97,1.77-3.5,1.15-7.17,1.27-10.65,2.84-.06.03-.06-1.14-1.06-.71l.35,1.42c.61,4.09,6.39,6,9.94,7.81-1,1.93-9.71,8.25-9.94,8.87-1.06,2.86,2.51,15.95-4.61,17.39s-9.04-11.49-8.16-16.68c1.1-6.53,11.79-11.24,12.07-12.07.1-.3-.57-6.1-.71-6.39-.76-1.59-3.22-.34-4.61-1.06-.75-.39-1.65-2.06-1.77-2.13,2.92-3.1,8.84-5.36,12.78-7.1,8.89-3.92,21.27-7.29,28.39-13.49,2.39,1.28,7.98-4.58,9.23-1.42Z" fill="#2a3d4a"/><path d="M397.62,516.87c-1.41.26-3.4-.11-4.97,0-2.06.15-4.31.06-6.39,0-1.17-.03-2.39.09-3.55,0-4.6-.35-10.52-1.38-14.9-2.84-.85-.28-6.78-2.62-7.1-2.84-6.27-4.3-4.06-9.51-4.26-16.32,6.48-5.53,5.21,4.75,1.42,7.45,5.97,8,43.37,9.33,46.13,2.13.87-2.26-4.64-11.8-2.84-14.55,3.54,8.91,10.46,24.41-3.55,26.97Z" fill="#c5201c"/><path d="M367.81,514.03c-.03,7.26-.28,21.09-8.87,24.13-14.17,5.01-3.78-10.24-3.19-12.42,1.41-5.24-2.67-10.74,4.97-14.55.32.22,6.24,2.56,7.1,2.84Z" fill="#2a3d4a"/><path d="M386.26,516.87l5.68,1.42c-.31,2.8,2.07,3.35,2.13,3.55.22.75.64,1.69.71,2.13-10.23,1.34-12.68,11.83-14.19,20.58-12.08-.3,2.1-15.55,2.84-20.94.12-.87-1.49-5.01-.71-6.74,1.16.09,2.38-.03,3.55,0Z" fill="#2a3d4a"/><path d="M356.45,477.83c1.51,4.56-.67,10.28-.71,14.9-2.17-.32-3.78-1.87-5.68-2.84-3.55-1.81-9.33-3.72-9.94-7.81l.71-.71c3.48-1.57,7.15-1.69,10.65-2.84,1.41-.46,4.71-.58,4.97-.71Z" fill="#991617"/><path d="M380.58,544.55c1.52-8.76,3.97-19.24,14.19-20.58,1.05,6.2-7.97,20.74-14.19,20.58Z" fill="#2a3d4a"/><path d="M397.62,516.87l-3.55,4.97c-.06-.2-2.44-.75-2.13-3.55.08-.71.75-.79.71-1.42,1.57-.11,3.55.26,4.97,0Z" fill="#658586"/><path d="M401.17,489.9c-1.8,2.75,3.7,12.29,2.84,14.55-2.76,7.2-40.16,5.87-46.13-2.13,3.79-2.7,5.06-12.98-1.42-7.45-.04-1.35-.71-1.6-.71-2.13.04-4.62,2.22-10.34.71-14.9,1.99-.99,6-8.4,11-10.65,18-8.09,27.86,7.98,33.71,22.71Z" fill="#cb3937"/><path d="M378.81,472.86c12.12-3.44,25.92,27.77,1.42,22-7.29-1.72-6.73-20.5-1.42-22Z" fill="#f2857d"/><path d="M340.84,481.38l-.71.71-.35-1.42c1-.43,1.01.74,1.06.71Z" fill="#bbcecc"/><path d="M392.65,516.87c.04.63-.63.71-.71,1.42l-5.68-1.42c2.08.06,4.32.15,6.39,0Z" fill="#202228"/><path d="M287.61,513.32c-.08,0,.36.68-1.42.71-4.6-1.85-6.46-3.43-11.71-2.84-1.86.21-6.04,2.8-6.39,2.84-1.36.16-3.6-6.28-2.48,4.26-.13.07-1.14,1.43-2.13,2.13-.16.11-.56-.11-.71,0-8.06-5.26-1.87-9.7-2.13-13.13-.19-2.55-4.14-3.98-4.26-4.26-1.27-3.1,1.95-6.86,1.42-8.52-.84-2.6-4.82-.66-5.68-3.55-1.28-4.33,3.53-3.61-.71-9.58-3.57-5.03-4.46-7.44-.35-13.49l1.06,1.06c.31-5.69,5.46-7.64,9.58-9.58.68-.32,4.52-1.58,1.06-2.13.63-.21,4.02-2.11,4.26-2.13,1.05-.07,2.13.05,3.19,0,4.4,2.06.62,9.97,1.06,11,.53,1.23,4.98,1.51,5.68,3.55.76,2.21-.97,6.85-.71,7.81.49,1.78,5.49.65,5.68,10.65.01.61-2.15,2.66-2.13,2.84.1,1.09,5.32,3.29,5.68,4.26,1.61,4.32-3.17,7.21-2.13,9.94.64,1.67,7.22,2.1,4.26,8.16Z" fill="#2a3d4a"/><path d="M262.76,457.25c3.45.55-.39,1.81-1.06,2.13-4.13,1.94-9.28,3.89-9.58,9.58l-1.06-1.06c-4.1,6.04-3.22,8.45.35,13.49-3.97,2.8-5.4-3.77-8.52-3.55,7.61-10.01,6.57-16.09,19.87-20.58Z" fill="#031320"/><path d="M286.19,514.03c-6,.1-12.13,1.41-17.74,3.55-.62.24-2.35.46-2.84.71-1.12-10.54,1.13-4.09,2.48-4.26.35-.04,4.53-2.63,6.39-2.84,5.25-.59,7.11.99,11.71,2.84Z" fill="#637a86"/><path d="M130.75,467.18c1.71.24,4.12-.35,5.68,0,3.28.73,11.03,7.07,11.71,7.1,2.34.08-.02-1.98.35-2.48.86-1.15,1.78.84,2.13,0,.39-.95-1.46-1.85-1.42-2.13.08-.6,1.44-.98,1.42-1.06,3.05.87,5.21,9.88,4.26,11.71-.42.8-1.24-.72-2.84,1.77-1.96,3.07,2.23,7.13.71,10.29-.83,1.73-5,.41-5.68,2.84-.37,1.32,2.76,6.21,2.13,8.52-.44,1.61-4.61,1.99-4.97,3.55-.33,1.43,6.29,10.68-1.42,12.42-1.15.26-1.33-.55-2.13-.71-.98-.2-.66-.7-.71-.71,1.48-5.49-3.1-8.7-8.16-9.23-8.83-.91-7.01,3.74-9.23,4.26-1.79.42-2.68-1.47-2.84-1.42-.63.21-.27,1.39-.35,1.42-.2.08-.5-.08-.71,0-4.92-5.69,4.78-7.23,4.97-11.71.02-.6-5.11-1.81-4.26-5.68.4-1.8,6.26-3.9,6.39-4.26.18-.53-3.32-6.87-1.42-10.65.75-1.49,3.6-2.11,4.26-3.55,1.94-4.26-3.34-4.29,2.13-10.29Z" fill="#2a3d4a"/><path d="M139.98,448.73c2.15,1.01,14.58,6.96,14.9,8.87.07.41-4.48,4.53-3.55,7.45-.89-.99-8.07-7.89-9.23-6.03,1.38,3.72,7.11,5.21,8.52,8.87-5.67.21-10.39-9.11-14.19-.71-1.56-.35-3.97.24-5.68,0,.96-1.05,2.38-.61,2.84-1.77.16-.4-1.89-7.11-1.42-8.52.8-2.39,4.33-2.52,6.39-2.84-4.36-3.23-7.55-5.04-10.65-9.58,4.42-.64,7.96,2.33,12.07,4.26Z" fill="#4d606c"/><path d="M139.98,518.28c-6.81-1.58-13.75-3.42-20.58-4.97.08-.03-.27-1.2.35-1.42.16-.05,1.05,1.84,2.84,1.42,2.21-.52.4-5.17,9.23-4.26,5.06.52,9.64,3.74,8.16,9.23Z" fill="#637a86"/><path d="M151.33,465.05c2.96,3.28,5.3,9.15,8.52,12.78-2.08,2.99-3.93,5.01-7.81,4.26,1.6-2.5,2.42-.97,2.84-1.77.95-1.84-1.21-10.84-4.26-11.71-.06-.23.07-.52,0-.71-1.41-3.66-7.13-5.15-8.52-8.87,1.16-1.86,8.34,5.05,9.23,6.03Z" fill="#031320"/><path d="M150.62,467.89c.07.19-.06.48,0,.71.02.09-1.34.47-1.42,1.06-.04.28,1.81,1.18,1.42,2.13-.35.84-1.27-1.15-2.13,0-.38.51,1.99,2.57-.35,2.48-.68-.02-8.44-6.37-11.71-7.1,3.8-8.4,8.52.92,14.19.71Z" fill="#637a86"/><path d="M263.47,520.41c-.97,13.33,1.07,23.38,11.71,31.94,5.78,4.65,13.99,6.95,19.87,11.36,7.04,5.27,20.02,25.21,23.42,26.97,2.98,1.54,14.02,2.66,15.26-.35,2.92-7.12-14.62-26.73-21.29-30.16.44-.49.84-1.41.71-2.13,2.31.14,2.85-.89,5.32,0,3,1.08,6.36,7.69,10.29,7.81,6.57,7.89,15.04,19.42,18.45,29.1-1.43-.6-2.02.67-2.13.71-2.19.76-4.12.66-6.39.71-.82.02-2.07-.39-2.13.71-1.41.03-2.85-.02-4.26,0-4.1.07-8,.46-12.07.71.46-1.53-4.66-2.08-5.32-2.13-2.27-.18-19.7-.53-20.58,0-.32.19-.89,2.8-1.06,3.55-4.48.09-9.01.01-13.49,0-.24,0-.47,0-.71,0-.87-1.28-3.55-.67-4.97-.71-14.36-.39-29.77-5.48-43.29-9.94.01-.24-.02-.47,0-.71,1.49-20.71,14.89-54.7,31.94-67.43.15-.11.55.11.71,0Z" fill="url(#linear-gradient)"/><path d="M274.12,598.49c.85,1.26,3.57.7,4.97.71.24,0,.47,0,.71,0,17.4,2.81,35.23.33,52.52-2.13,1.41-.02,2.85.03,4.26,0,.82-.02,2.08.39,2.13-.71,2.27-.05,4.2.05,6.39-.71,2.67.07.37,8.03-.35,8.52-1.31.88-27.85,4.09-31.23,4.26-27.65,1.38-54.17-5.75-80.91-11.36l-1.77-7.1c0-.47-.03-.95,0-1.42,13.53,4.45,28.93,9.55,43.29,9.94Z" fill="#2a3d4a"/><path d="M268.44,517.58c-12.84,18.93,9.29,42.11,29.1,41.88,3.49,4.29,11.26,4.78,14.9.71,6.67,3.44,24.21,23.05,21.29,30.16-1.24,3.02-12.28,1.9-15.26.35-3.4-1.76-16.38-21.7-23.42-26.97-5.88-4.4-14.1-6.71-19.87-11.36-10.64-8.56-12.68-18.61-11.71-31.94.99-.7,2-2.06,2.13-2.13.49-.25,2.22-.47,2.84-.71Z" fill="#f2857d"/><path d="M320.25,597.78c-9.01.56-17.93,1.23-26.97,1.42.17-.75.75-3.36,1.06-3.55.88-.53,18.31-.18,20.58,0,.66.05,5.78.6,5.32,2.13Z" fill="#fa8367"/><path d="M332.32,597.07c-17.29,2.46-35.12,4.94-52.52,2.13,4.48.01,9.01.09,13.49,0,9.04-.19,17.96-.86,26.97-1.42,4.06-.25,7.97-.64,12.07-.71Z" fill="#391e2b"/><path d="M313.16,558.03c.13.72-.27,1.64-.71,2.13-3.64,4.07-11.42,3.58-14.9-.71,5.97-.07,9.07-1.82,15.61-1.42Z" fill="#dc7877"/><path d="M279.09,599.2c-1.4,0-4.11.55-4.97-.71,1.42.04,4.1-.57,4.97.71Z" fill="#551823"/><path d="M338.71,596.36c-.05,1.1-1.31.69-2.13.71.05-1.1,1.31-.69,2.13-.71Z" fill="#391e2b"/><path d="M328.77,565.84c-3.93-.11-7.29-6.73-10.29-7.81-2.47-.89-3.01.14-5.32,0-6.54-.4-9.64,1.35-15.61,1.42-19.81.24-41.94-22.95-29.1-41.88,5.61-2.14,11.74-3.45,17.74-3.55,1.78-.03,1.34-.71,1.42-.71,11.88.72,23.73,24.46,28.39,34.42.8,1.71.99,6.97,1.42,7.81.35.68,9.18,7.68,11.36,10.29Z" fill="#c5201c"/><path d="M284.41,519.7c10.6-2.08,21.03,13.14,12.07,19.16-2.2,1.48-11.02,2.79-13.49,2.13-4.68-1.25-8.15-19.42,1.42-21.29Z" fill="#f2857d"/><path d="M88.17,557.32c2.84-.53,6.15.82,5.68,4.26-1.97.98-4.35,2.15-6.03,3.55-4.73,3.91-19.75,23.64-11.71,26.97-.97,3.73-3.49-.24-2.84,4.26-1.37-.15-2.9.18-4.26,0-2.82-.38-5.86-.07-8.52-1.42h-.71c2.69-7.79,20.54-36.14,28.39-37.62Z" fill="#cb3937"/><path d="M142.82,519.7v.71c2.67,14.89-1.47,25.62-13.84,34.07-4.64,3.17-11.81,5.23-16.32,8.52-10.66,7.77-22.72,34.83-36.55,29.1-8.04-3.33,6.98-23.06,11.71-26.97,1.69-1.4,4.07-2.56,6.03-3.55.49-.24.89-.61,1.42-.71,1.92,2.6,11.87,2.99,13.49-1.42,20.27.2,39.43-19.4,31.94-40.46.8.16.98.97,2.13.71Z" fill="#f2857d"/><path d="M119.4,513.32c6.84,1.54,13.77,3.39,20.58,4.97.05.01-.27.51.71.71,7.49,21.06-11.67,40.66-31.94,40.46-2.48-.02-17.65-4.22-13.49,1.42-.53.1-.93.47-1.42.71.48-3.44-2.84-4.79-5.68-4.26,5.58-16.64,12.98-37.25,30.52-44,.21-.08.5.08.71,0Z" fill="#c5201c"/><path d="M116.91,519.7c17.77-2.76,15.81,29.95-5.68,19.87-9.67-4.54-2.25-18.64,5.68-19.87Z" fill="#f2857d"/><path d="M108.75,559.45c-1.61,4.41-11.57,4.02-13.49,1.42-4.16-5.64,11.01-1.44,13.49-1.42Z" fill="#dc7877"/><path d="M175.47,588.55c-11.76,4.92-24.25,7.58-36.91,9.23-1.19.16-2.69.69-2.84.71-1.35.15-2.29.66-2.84.71h-3.55c-.7.05-1.43-.04-2.13,0-3.97.24-8.08-.08-12.07,0l.35-3.55c-7.88.94-16.31-.87-24.13,0-.52.06-4.5.74-3.9,2.13-1.64-.06-3.33.1-4.97,0-2.73-.29-4.99-.7-7.81-.71-.08,0,.35-.52-1.42-.71-.65-4.5,1.87-.53,2.84-4.26,13.84,5.73,25.89-21.33,36.55-29.1,4.51-3.29,11.68-5.35,16.32-8.52,12.37-8.45,16.51-19.18,13.84-34.07,18.29,15.59,32.25,44.07,32.65,68.14Z" fill="url(#linear-gradient-2)"/><path d="M175.47,589.97l-1.77,7.1c-27.11,5.86-52.79,12.74-80.91,11.36-4.01-.2-26.54-2.52-29.1-3.55-3.2-1.28-4.23-6.98-3.19-9.94,2.66,1.35,5.69,1.04,8.52,1.42,1.14,1.27,4.06.7,5.68.71,2.6.22,5.15.54,7.81.71,4.87.53,9.22,1.2,14.19,1.42,6.31,1.68,14,1.98,20.58.71,3.09,0,7.12.58,9.94-.71.7-.04,1.43.05,2.13,0,1.17-.08,2.39.1,3.55,0,.55-.05,1.48-.56,2.84-.71l2.84-.71c12.66-1.65,25.14-4.3,36.91-9.23,0,.47.01.95,0,1.42Z" fill="#2a3d4a"/><path d="M73.26,596.36c1.77.19,1.34.7,1.42.71-1.62,0-4.54.56-5.68-.71,1.36.18,2.88-.15,4.26,0Z" fill="#4f1110"/><path d="M115.14,599.2c-2.59.05-5.22.04-7.81,0-1.96-.03-3.89-.68-4.97-.71-4.99.04-9.92-.52-14.9-.71-.6-1.39,3.38-2.07,3.9-2.13,7.82-.87,16.25.94,24.13,0l-.35,3.55Z" fill="#fa8367"/><path d="M87.46,597.78c4.99.19,9.91.75,14.9.71-.74-.02-3.67.8-5.68.71-4.97-.22-9.32-.89-14.19-1.42,1.64.1,3.33-.06,4.97,0Z" fill="#551823"/><path d="M115.14,599.2c3.99-.08,8.09.24,12.07,0-2.81,1.29-6.85.71-9.94.71s-7.12.58-9.94-.71c2.59.04,5.22.05,7.81,0Z" fill="#491d2b"/><path d="M82.49,597.78c-2.66-.17-5.21-.49-7.81-.71,2.82.01,5.08.41,7.81.71Z" fill="#4f1110"/><path d="M132.88,599.2c-1.16.1-2.38-.08-3.55,0h3.55Z" fill="#551823"/><path d="M138.56,597.78l-2.84.71c.15-.02,1.65-.55,2.84-.71Z" fill="#551823"/><path d="M107.33,599.2c2.81,1.29,6.85.71,9.94.71-6.58,1.27-14.27.97-20.58-.71,2.01.09,4.94-.73,5.68-.71,1.08.03,3.01.68,4.97.71Z" fill="#232331"/><path d="M167.66,418.21c5,5.84,9.22,8.56,16.32,11.36,11.34,4.45,22.56,4.96,34.42,1.42.37-.11,3.97-1.56,2.48-2.84,13.72-4.51,17.24-13.82,22.71-24.84,2.62-5.27,5.12-3.58,11-3.55,10.43.05,19.76,3.23,29.81,4.26,2.18.22,7.08.77,8.87-.71-.28,6.83.11,12.33-1.42,19.16-2.58-4.22-12.98-.5-17.39.71-35.48,9.72-41.14,34.73-54.3,64.59-5.88,7.39-3.16,3.27-5.32,2.84-4.91-.97-11.27.77-17.03.71-4.68-.05-9.15-4.32-11.71,1.42-12.86-27.12-20.64-57.4-52.17-68.14-5.59-1.9-17.19-5.46-22.36-2.84-1.08-5.05-2.01-10.97-2.13-17.03l48.62-4.97c1.73,7,4.91,12.99,9.58,18.45Z" fill="#dbe3e6"/><path d="M291.86,422.47c-.44,1.96.69,4.55-1.06,6.39-2.17,2.26-9.58.59-12.42,4.26-10.02,0-22.24,8.06-29.1,15.26-5.59,5.87-21.74,31.97-23.42,39.39-.48,2.11-.14,2.9,0,4.97-2.3,1.38-6.02,5.12-8.16,5.68-1.83.48-1.68-.73-1.77-.71,1.18-3.39,2.81-6.65,4.26-9.94,13.16-29.86,18.81-54.86,54.3-64.59,4.41-1.21,14.81-4.93,17.39-.71Z" fill="#4d606c"/><path d="M186.11,492.73c.76,1.6,1.89,3.16,2.13,4.97-4.03-.93-3.06.59-6.39-3.55-1.74-2.17-3.19-5.98-4.97-8.52-10.19-19.82-22.13-43.44-44.36-51.81-2.77-1.04-6.79-1.21-9.58-2.13-4.14-1.36-8.7-1.15-11.36-4.61-.22-1.63.32-3.84,0-5.32,5.16-2.62,16.77.94,22.36,2.84,31.52,10.74,39.31,41.02,52.17,68.14Z" fill="#4d606c"/><path d="M275.54,440.92c-.66,1.44-.21,3.75-2.13,6.03-1.68,2.01-13,5.93-6.39,8.16-.24.02-3.63,1.92-4.26,2.13-13.3,4.49-12.27,10.57-19.87,20.58-6.16,8.11-8.31,9.66-17.03,14.9-.14-2.07-.48-2.85,0-4.97,7.41-10.68,11.73-22.23,20.58-31.94,1.66-.58,1.6,2.1,2.48,2.13,1.58.06,21.28-17.65,26.62-17.03Z" fill="#40515c"/><path d="M286.19,330.2c2.74,17.67,7.05,38.46,7.81,56.07.16,3.81-1.32,10.86-1.42,14.9-1.65-.29-3.32-.48-4.97-.71,2.57-6.33,1.27-16.63.71-23.78-.88-11.2-6.01-30.88-5.68-40.46.1-2.87.81-4.43,3.55-6.03Z" fill="#afbdc3"/><path d="M176.89,485.64c-12.17-17.41-22.01-36.97-41.88-46.84-2.73-1.35-8.14-5.47-10.65-2.13-.6-1.63-1.98-2.93-1.42-4.97,2.79.92,6.82,1.09,9.58,2.13,22.23,8.37,34.17,31.99,44.36,51.81Z" fill="#132530"/><path d="M278.38,433.12c-.5.64-1.68,3.83-2.13,4.97-1.19-1.36-1.08-1.67-3.19-1.42-6.74.81-21.87,13.96-26.62,19.16-8.86,9.7-13.18,21.26-20.58,31.94,1.68-7.42,17.83-33.52,23.42-39.39,6.86-7.2,19.08-15.26,29.1-15.26Z" fill="#132530"/><path d="M276.25,438.08c-.23.58-.12,1.55-.71,2.84-5.34-.62-25.04,17.09-26.62,17.03-.88-.03-.82-2.71-2.48-2.13,4.75-5.2,19.87-18.36,26.62-19.16,2.11-.25,2,.06,3.19,1.42Z" fill="#2a3d4a"/><path d="M135.01,438.79c-4.46,2.42,7.77,5.87,8.52,8.16l-3.55,1.77c-4.1-1.93-7.64-4.9-12.07-4.26-2.09-3.05-2.35-4.53-3.55-7.81,2.51-3.34,7.92.77,10.65,2.13Z" fill="#2a3d4a"/><path d="M220.18,487.77c-1.45,3.28-3.08,6.54-4.26,9.94-8.78,2.06-18.94,2.02-27.68,0-.24-1.81-1.37-3.37-2.13-4.97,2.56-5.74,7.03-1.47,11.71-1.42,5.76.06,12.12-1.68,17.03-.71,2.16.43-.56,4.55,5.32-2.84Z" fill="#dbe3e6"/><path d="M261.35,308.91c0,.69,1.07,1,.71,2.13-1.79,2.94-2.35,3.49-4.97,5.68-11.5,9.6-22.77,11.16-35.13,12.78-.21.03-3.33,2.11-3.55,2.13-.51.04-.2-1.45-.71-1.42-2.66.17-3.36,1.41-3.55,1.42-14.07.6-39.71-.5-52.88-4.97-10.73-3.64-22.41-12.3-23.42-24.84,3.19-1.3,5.45-3.13,9.23-4.26-3.03,4.47-4.63,8.93-2.48,14.19,8.65-.73,17.12-2.87,25.91-2.13,17.75,1.5,27.03,6.82,47.2,2.84,10.5-2.07,21.69-6.03,20.23-18.45,9.15,1.49,21.61,3.91,20.58,15.97l2.84-1.06Z" fill="#4d606c"/><path d="M166.24,293.29c-.49,1.06-1.54.61-2.13,2.13-2.77,7.13.58,10.73,6.39,14.19-8.79-.74-17.26,1.4-25.91,2.13-2.15-5.26-.55-9.73,2.48-14.19,5.8-1.73,8.46-2.98,14.9-3.55,1.44-.13,2.39-.66,4.26-.71Z" fill="#2a3d4a"/><path d="M264.89,302.52c.26,2.17-.05,3.64-.71,5.68-.8,2.45-1.66,2.08-2.13,2.84.36-1.13-.7-1.44-.71-2.13-.03-4.42,4.08-5.98-4.26-9.58.66-2.22,7.38,3.09,7.81,3.19Z" fill="#4d606c"/><path d="M237.21,293.29s-.26.55.71.71c1.46,12.43-9.73,16.38-20.23,18.45-20.17,3.98-29.45-1.33-47.2-2.84-5.81-3.47-9.16-7.07-6.39-14.19,17.15,20.14,53.75,18.76,70.97-.35l-.35-1.77-3.19-.71c2.12.03,3.7.46,5.68.71Z" fill="#031320"/><path d="M164.11,295.42c.59-1.52,1.64-1.07,2.13-2.13,1.92-.05,4.59.68,7.1.71-2.43,4.49,6.39,6.54,9.23,7.1,4.26.83,9.14.77,13.49.71,8.58-.12,22.39-1.03,28.39-7.81,1.35-.04,5.86-1.44,7.1-1.42l3.19.71.35,1.77c-17.23,19.11-53.83,20.49-70.97.35Z" fill="#132530"/><path d="M224.44,294c-6,6.78-19.81,7.69-28.39,7.81v-6.39c9.42-.05,18.96-1.14,28.39-1.42Z" fill="#2a3d4a"/><path d="M196.05,295.42v6.39c-4.35.06-9.22.13-13.49-.71l.71-6.39c4.32-.02,8.45.73,12.78.71Z" fill="#637a86"/><path d="M183.27,294.71l-.71,6.39c-2.84-.56-11.65-2.6-9.23-7.1,3.32.04,6.37.72,9.94.71Z" fill="#40515c"/><path d="M135.01,438.79c19.87,9.87,29.71,29.44,41.88,46.84,1.78,2.54,3.23,6.35,4.97,8.52-8.81-2.78-16.04-9.6-22-16.32-3.22-3.62-5.55-9.49-8.52-12.78-.93-2.92,3.62-7.05,3.55-7.45-.33-1.91-12.76-7.86-14.9-8.87l3.55-1.77c-.74-2.3-12.97-5.74-8.52-8.16Z" fill="#40515c"/><path d="M137.85,301.81c1.01,12.54,12.7,21.21,23.42,24.84,28.13,12.17,71.88,11.31,95.82-9.94,2.62-2.18,3.17-2.74,4.97-5.68.46-.76,1.33-.39,2.13-2.84,6.59,3.05-7.24,15.98-10.29,18.45-13.9,11.25-35.3,16.64-52.88,17.39.59,4.91,5.4,1.33,7.45,1.77.59.13.12,1.28.71,1.42,4.2,1.01,11.77,1.2,13.84,5.68-32.11-17.8-68.63,8.14-65.65,44l-47.2,4.26c.06-9.76,1.23-19.36.71-29.1.62-4.39.72-9.02,1.42-13.49,1.41,3.08,2.05-1.99,2.13-2.48.88-5.18.96-11.58,2.13-16.68.11-.48.88-3.55,1.06-3.55.89,0-.41,3.65,1.06,3.19,2.09-7.86,3.74-32.49,11-35.84,2.08-.96,6.8-.86,8.16-1.42Z" fill="#dbe3e6"/><path d="M112.3,358.59c1-6.41,2.53-12.8,3.55-19.16h.71c-1.17,5.1-1.25,11.5-2.13,16.68-.08.49-.72,5.56-2.13,2.48Z" fill="#dbe3e6"/><path d="M257.09,316.72c-23.94,21.25-67.68,22.11-95.82,9.94,13.17,4.46,38.8,5.57,52.88,4.97.19,0,.89-1.25,3.55-1.42.51-.03.2,1.46.71,1.42.22-.02,3.34-2.1,3.55-2.13,12.36-1.62,23.64-3.17,35.13-12.78Z" fill="#40515c"/><path d="M135.36,328.07c16.24-3.63,16.03,20.87.71,17.74-8.8-1.79-8.91-15.91-.71-17.74Z" fill="#2a3d4a"/><path d="M136.78,329.49c6.98-1.43,12.74,8.24,6.74,13.13-10.5,8.57-16.95-11.03-6.74-13.13Z" fill="#a3e6eb"/><path d="M282.64,313.17c-.3,1.55,3.08,14,3.55,17.03-2.74,1.6-3.45,3.16-3.55,6.03-.33,9.58,4.79,29.26,5.68,40.46.56,7.14,1.86,17.45-.71,23.78-13.74-1.95-27.67-2.61-41.52-3.55.59-17.22-7.71-35.49-23.07-44-2.07-4.48-9.64-4.67-13.84-5.68-.59-.14-.12-1.29-.71-1.42-2.05-.44-6.86,3.13-7.45-1.77,17.58-.75,38.98-6.14,52.88-17.39,3.05-2.47,16.88-15.4,10.29-18.45.66-2.04.97-3.51.71-5.68,1.22.31,7.83-.85,10.29,1.42l7.45,9.23Z" fill="#dbe3e6"/><path d="M260.99,328.07c17.36-3.72,15.52,21.55,0,17.74-7.64-1.87-8.34-15.96,0-17.74Z" fill="#103142"/><path d="M261.7,329.49c8.97-2.52,13.76,10.69,6.39,14.19-10.79,5.13-15.08-11.75-6.39-14.19Z" fill="#a3e6eb"/><path d="M261.7,331.62c5.81-2.18,9.64,7.85,4.26,9.23-7.34,1.88-8.59-7.6-4.26-9.23Z" fill="#70effc"/><path d="M243.6,403.31c-5.47,11.02-9,20.33-22.71,24.84-12.09,3.97-23.87,2.07-36.2,1.42,1.48-4.39-4.83-5.03-7.45-7.1-14.2-11.18-21-30.88-11.71-47.55-.26,4.82-5.3,12.78-1.42,17.03-.08,2.3-.72,4.62,0,6.74,1.58.08.08-3.42,1.06-3.9.1-.05-.52.79,1.77,1.42.86.23,3.92,1.13,4.26,1.77.12.24-.13,5.09,0,5.32-4.56,1.2,1.98,13.41,3.9,7.81.62,4.11,4.66,6.85,8.52,9.23,1.24.77,2.71-.78,2.84-.71.89.47-.38,2.19,1.06,2.84,1.12.5,3.68,1.98,4.61,2.13,3.42.56,4.71-1.42,4.97-1.42.29,0,2.37,2.41,5.68,1.42,3.91-1.17.31-2.29.35-2.48.42-1.67,8.1-3.17,10.65-3.9.05.57.49.8.71,1.42l-8.16,2.13c-1.85,5.81,6.13,1.52,8.87.71,16.42-4.87,24.65-18.74,22.71-36.2-.25-2.26.25-3.17-.71-5.68,2.43-.86-.18-4.69-.71-6.03,1.69-4.03,5.1,15.96,4.97,17.03,4.11-12.95,2.22,7.61,2.13,11.71Z" fill="#4d606c"/><path d="M166.24,374.21c-.09.12.11.83-.71.71-9.29,16.68-2.49,36.38,11.71,47.55,2.62,2.07,8.93,2.71,7.45,7.1h-.71c-7.11-2.79-11.32-5.52-16.32-11.36-9.69-15.55-10.71-29.84-2.84-46.49l1.42,2.48Z" fill="#637a86"/><path d="M183.98,429.57h.71c12.33.66,24.11,2.55,36.2-1.42,1.49,1.27-2.12,2.73-2.48,2.84-11.86,3.54-23.08,3.03-34.42-1.42Z" fill="#dbe3e6"/><path d="M203.15,357.17c.37.02,5.96,1.8,7.1,2.13,5.54,1.63,8.97,3.09,12.78,7.45.47.53,2.99,2.84.71,3.19-13.52-14.02-34.2-12.83-46.13,2.48-2.27,2.92-3.65,8.12-5.68,11.36-.77,4.12-1.64,13.26,2.84,15.97-.17,1.58-1.79.84.71,5.32,10.45,18.76,40.4,18.91,51.81.35,1.78-2.9,3.67-6.2,4.26-9.58.03-.16-.12.09,0-1.42.6-7.53.1-12.26-3.55-18.81,1.94-2.06,3.62,2.5,4.26,4.26,1.1,3.05,1.09,6.23,2.13,9.23,1.76,5.1,1.8,1.71,2.84,3.19.55.78-1.23,7.4-1.77,8.87l-1.77-4.61c-2.57,3.58.19,8.34,0,9.94-.31,2.62-17.48,18.98-17.74,12.78l1.77-2.48c-1.34.49-2.52,1.02-3.9,1.42-2.55.74-10.23,2.23-10.65,3.9-.05.2,3.55,1.32-.35,2.48-3.31.99-5.39-1.42-5.68-1.42-.26,0-1.55,1.98-4.97,1.42-.94-.15-3.49-1.62-4.61-2.13,1.56-4.13,5.48-.77,7.81-2.48-8.37-2.55-12.21-4.61-18.1-10.29-.07-.06-.83,1.42-1.77.35-.26-.3-3.98-6.23-4.26-6.74-.13-.23.12-5.09,0-5.32-.33-.64-3.4-1.54-4.26-1.77,1.06-2.97,1.31-5.42,2.13-8.52.76-2.86,1.64-5.56,2.13-8.52.04-.23-.04-.48,0-.71,2.09-4.71,6.91-9.22,6.39-13.84l1.77,1.06-.35-2.13c.12-.13.61-1.33.71-1.42l2.13.71c-2.27,4.17,4.15-.07,4.26-2.13.4-.11,1.29-.48,2.13-.71,2.05-.58,11.98-2.81,13.49-2.84.47-.01.95-.02,1.42,0Z" fill="#899aa5"/><path d="M223.73,369.95c1.11,1.15,3.49,4.29,4.26,5.68,3.65,6.55,4.15,11.28,3.55,18.81-.12,1.51.03,1.26,0,1.42-.59,3.39-2.48,6.69-4.26,9.58-.64-1.63-.91-4.34-.71-6.03.59-4.87,4.53-13.57,2.84-17.74-8.44-20.78-34.92-25.9-48.97-7.81-6.41,8.25-4.71,16.77-5.68,25.91-4.48-2.71-3.61-11.85-2.84-15.97,2.03-3.23,3.41-8.44,5.68-11.36,11.93-15.31,32.62-16.5,46.13-2.48Z" fill="#2d687b"/><path d="M237.21,380.59c.96,2.51.46,3.42.71,5.68-1.93,1.44-4.16.38-3.55,2.84-1.04-3-1.03-6.18-2.13-9.23,3.26-1.7,3.9-2.07,4.97.71Z" fill="#98939a"/><path d="M223.02,352.91c15.36,8.51,23.66,26.78,23.07,44,13.85.94,27.78,1.6,41.52,3.55,1.65.23,3.32.42,4.97.71,0,.11.8.03.71,2.13-1.79,1.48-6.7.93-8.87.71-10.05-1.03-19.38-4.21-29.81-4.26-5.88-.03-8.38-1.73-11,3.55.09-4.1,1.98-24.66-2.13-11.71.13-1.07-3.28-21.07-4.97-17.03.53,1.34,3.14,5.17.71,6.03-1.07-2.78-1.71-2.41-4.97-.71-.64-1.76-2.31-6.32-4.26-4.26-.77-1.38-3.15-4.53-4.26-5.68,2.28-.36-.24-2.66-.71-3.19-3.81-4.36-7.23-5.83-12.78-7.45,2.14-2.97-3.55-4.58-5.68-3.55-.32-6.43-7.47-2.91-2.84,1.42-1.51.03-11.43,2.26-13.49,2.84l5.68-3.19-1.77-2.48c-2.32-.68-9.3,3.33-11.36,4.97-2.46,1.97-.93,2.71-1.06,2.84-.1.09-.59,1.29-.71,1.42-.19.21-.58-1.29-3.55,2.84-.12.17-4.11,1.9-.71,2.13-.95,1.13-4.84,5.81-4.97,6.74-.17,1.31,1.69,1.5,1.42,3.19-.04.23.04.48,0,.71-5.09-4.62-8.08,10.81-2.13,8.52-.82,3.1-1.07,5.55-2.13,8.52-2.3-.63-1.67-1.47-1.77-1.42-.99.49.52,3.98-1.06,3.9-.72-2.12-.08-4.44,0-6.74.25-7.01.99-14.32,4.97-20.23-.56-2.84-2.67,2.24-2.84,2.48l-1.42-2.48c-7.87,16.65-6.85,30.94,2.84,46.49-4.67-5.46-7.86-11.45-9.58-18.45l-48.62,4.97c0-.41.7-1.93.71-3.55l47.2-4.26c-2.98-35.86,33.54-61.8,65.65-44Z" fill="#4d606c"/><path d="M197.82,350.07c13.62-1.23,30.44,5.9,36.55,18.81-10.22-14.4-28.04-21.15-45.07-15.26-.09-2.16,7.05-3.42,8.52-3.55Z" fill="#afbdc3"/><path d="M188.24,360.01c-.84.23-1.73.6-2.13.71-2.31.63-2.61-.9-4.26,2.13l-2.13-.71c.13-.13-1.4-.87,1.06-2.84,2.05-1.64,9.03-5.65,11.36-4.97l1.77,2.48-5.68,3.19Z" fill="#9eaaae"/><path d="M179.01,363.56l.35,2.13-1.77-1.06c.52,4.62-4.29,9.13-6.39,13.84.27-1.7-1.59-1.89-1.42-3.19.12-.93,4.02-5.61,4.97-6.74.63-.75,2.05-.38.71-2.13,2.97-4.13,3.36-2.63,3.55-2.84Z" fill="#4d606c"/><path d="M171.21,379.17c-.49,2.96-1.37,5.65-2.13,8.52-5.95,2.29-2.96-13.14,2.13-8.52Z" fill="#777b84"/><path d="M212.73,355.04l8.87,3.19c-3.03,4-6.3,1.9-9.94,0l1.06-3.19Z" fill="#9eaaae"/><path d="M164.11,391.95c-3.88-4.26,1.16-12.22,1.42-17.03.82.12.62-.59.71-.71.17-.24,2.28-5.33,2.84-2.48-3.98,5.91-4.72,13.22-4.97,20.23Z" fill="#dbe3e6"/><path d="M210.24,359.3c-1.14-.33-6.73-2.11-7.1-2.13.06-.83.78-1.11,1.42-1.42,2.13-1.03,7.82.58,5.68,3.55Z" fill="#4d606c"/><path d="M204.57,355.75c-.64.31-1.36.59-1.42,1.42-.47-.02-.95-.01-1.42,0-4.63-4.33,2.52-7.85,2.84-1.42Z" fill="#f9fcfc"/><path d="M235.08,374.92l-1.42,1.42c-.72-.75-1.49-4.82-2.13-6.39,1.34,1.5,3.35,1.87,3.55,4.97Z" fill="#98939a"/><path d="M231.54,369.95c-.68-.77-3.53-1.84-2.48-3.55,2.62.26,2.02,2.4,2.48,3.55Z" fill="#98939a"/><path d="M175.47,366.4c1.34,1.75-.08,1.38-.71,2.13-3.4-.23.59-1.96.71-2.13Z" fill="#cfcdc8"/><path d="M235.08,374.92c.1,1.64-.33,3.27-1.42,1.42l1.42-1.42Z" fill="#ebe7e6"/><path d="M182.21,355.75c1.77-.25.77,1.41-.71,1.42-.72-.36.59-1.4.71-1.42Z" fill="#9eaaae"/><path d="M187.53,422.47c-1.44-.65-.17-2.37-1.06-2.84-.13-.07-1.59,1.48-2.84.71-3.86-2.38-7.9-5.11-8.52-9.23-1.92,5.6-8.47-6.6-3.9-7.81.28.51,3.99,6.44,4.26,6.74.95,1.07,1.71-.42,1.77-.35,5.89,5.68,9.73,7.75,18.1,10.29-2.32,1.71-6.25-1.65-7.81,2.48Z" fill="#7c8b96"/><path d="M237.92,386.27c1.94,17.46-6.3,31.32-22.71,36.2-.13-.85-.42-2.05-.71-2.84-.22-.62-.66-.85-.71-1.42,1.38-.4,2.56-.93,3.9-1.42l-1.77,2.48c.26,6.2,17.43-10.15,17.74-12.78.19-1.6-2.57-6.35,0-9.94l1.77,4.61c.54-1.48,2.32-8.09,1.77-8.87-1.04-1.48-1.08,1.9-2.84-3.19-.61-2.46,1.62-1.4,3.55-2.84Z" fill="#2a3d4a"/><path d="M214.5,419.63c.29.79.58,1.99.71,2.84-2.74.81-10.72,5.1-8.87-.71l8.16-2.13Z" fill="#98939a"/><path d="M186.11,360.72c-.11,2.06-6.53,6.3-4.26,2.13,1.65-3.03,1.95-1.5,4.26-2.13Z" fill="#4d606c"/><path d="M227.28,405.43c-11.41,18.55-41.36,18.41-51.81-.35-2.5-4.48-.88-3.75-.71-5.32.96-9.13-.73-17.65,5.68-25.91,14.05-18.09,40.53-12.97,48.97,7.81,1.69,4.17-2.25,12.87-2.84,17.74-.2,1.69.07,4.4.71,6.03Z" fill="#4a8a9a"/><path d="M209.53,401.18c-.16.32-.61,1.32-.71,1.42-1.6,1.58-.84.69-2.13,1.42-4.41-2.03-8.21-.11-12.78-2.13-1.28-1.52-1.1-6.1-1.42-6.74-.29-.59-4.42-.48-3.55-7.1,1.54-11.72,16.88-16.69,22.71-5.68.45.85,2.27,7.43,2.13,8.52-.07.55-3.69,9.16-4.26,10.29Z" fill="#70effc"/><path d="M208.82,402.6c.1-.1.55-1.1.71-1.42,11.52-4.03,11.03-22.84.35-27.68-21.12-9.57-34.9,20.01-15.97,28.39,4.57,2.02,8.37.1,12.78,2.13-1.79,1.01-3.83.46-4.26,1.06-.87,1.25,1.46,9.42-1.06,11-1.1-1.91.3-10.05-.35-11s-14.93-1.28-17.03-12.78c-5.57-30.41,43.19-27.52,34.78,1.42-.93,3.2-5.94,9.52-9.94,8.87Z" fill="#a3e6eb"/><path d="M209.53,401.18c.57-1.13,4.19-9.74,4.26-10.29.14-1.09-1.68-7.67-2.13-8.52-5.83-11.01-21.18-6.05-22.71,5.68-.87,6.62,3.26,6.51,3.55,7.1.32.64.14,5.23,1.42,6.74-18.93-8.38-5.15-37.96,15.97-28.39,10.68,4.84,11.16,23.65-.35,27.68Z" fill="#57c6dd"/></g></svg>