<?xml version="1.0" encoding="UTF-8"?>
<svg id="Layer_1" data-name="Layer 1" xmlns="http://www.w3.org/2000/svg" xmlns:xlink="http://www.w3.org/1999/xlink" viewBox="0 0 792 612">
  <defs>
    <style>
      .cls-1 {
        fill: #c8c4ca;
      }

      .cls-2 {
        fill: #875352;
      }

      .cls-3 {
        fill: #d28d33;
      }

      .cls-4 {
        fill: #845a4c;
      }

      .cls-5 {
        fill: #fae084;
      }

      .cls-6 {
        fill: #474a55;
      }

      .cls-7 {
        fill: #db9c36;
      }

      .cls-8 {
        fill: #2b447a;
      }

      .cls-9 {
        fill: #58156d;
      }

      .cls-10 {
        fill: #c37d65;
      }

      .cls-11 {
        fill: #6c1f0e;
      }

      .cls-12 {
        fill: url(#linear-gradient-8);
      }

      .cls-13 {
        fill: url(#linear-gradient-7);
      }

      .cls-14 {
        fill: url(#linear-gradient-5);
      }

      .cls-15 {
        fill: url(#linear-gradient-6);
      }

      .cls-16 {
        fill: url(#linear-gradient-9);
      }

      .cls-17 {
        fill: url(#linear-gradient-4);
      }

      .cls-18 {
        fill: url(#linear-gradient-3);
      }

      .cls-19 {
        fill: url(#linear-gradient-2);
      }

      .cls-20 {
        fill: #77211e;
      }

      .cls-21 {
        fill: #eab085;
      }

      .cls-22 {
        fill: url(#linear-gradient);
      }

      .cls-23 {
        fill: #bb7028;
      }

      .cls-24 {
        fill: #46214d;
      }

      .cls-25 {
        fill: #eb9680;
      }

      .cls-26 {
        fill: #310d1d;
      }

      .cls-27 {
        fill: #d3752d;
      }

      .cls-28 {
        fill: #f9eba4;
      }

      .cls-29 {
        fill: #e04f4e;
      }

      .cls-30 {
        fill: #f7bba0;
      }

      .cls-31 {
        fill: #c03e1e;
      }

      .cls-32 {
        fill: #939296;
      }

      .cls-33 {
        fill: #823610;
      }

      .cls-34 {
        fill: #838587;
      }

      .cls-35 {
        fill: #4f111e;
      }

      .cls-36 {
        fill: #da7056;
      }

      .cls-37 {
        fill: #c77c1f;
      }

      .cls-38 {
        fill: #e7cc91;
      }

      .cls-39 {
        fill: #fff;
      }

      .cls-40 {
        fill: #182f66;
      }

      .cls-41 {
        fill: #d5d2d0;
      }

      .cls-42 {
        fill: #fded7a;
      }

      .cls-43 {
        fill: #b81daf;
      }

      .cls-44 {
        fill: #edb048;
      }

      .cls-45 {
        fill: #adadaf;
      }

      .cls-46 {
        fill: url(#linear-gradient-10);
      }

      .cls-47 {
        fill: #f7a63e;
      }

      .cls-48 {
        fill: #131216;
      }

      .cls-49 {
        fill: #9b401a;
      }

      .cls-50 {
        fill: #d35722;
      }

      .cls-51 {
        fill: #ac5a47;
      }

      .cls-52 {
        fill: #b45c24;
      }

      .cls-53 {
        fill: #35363c;
      }

      .cls-54 {
        fill: #f3c74f;
      }

      .cls-55 {
        fill: #2b152e;
      }

      .cls-56 {
        fill: #fcf6ca;
      }

      .cls-57 {
        fill: #e3872f;
      }

      .cls-58 {
        fill: #fffbef;
      }

      .cls-59 {
        fill: #bae5f9;
      }

      .cls-60 {
        fill: #a4501f;
      }

      .cls-61 {
        fill: #e28e68;
      }

      .cls-62 {
        fill: #513c4f;
      }

      .cls-63 {
        fill: #dc692b;
      }

      .cls-64 {
        fill: #112050;
      }

      .cls-65 {
        fill: #fde13c;
      }

      .cls-66 {
        fill: #482638;
      }

      .cls-67 {
        fill: #efa499;
      }

      .cls-68 {
        fill: #f5d2af;
      }

      .cls-69 {
        fill: #7a7a84;
      }
    </style>
    <linearGradient id="linear-gradient" x1="367.81" y1="490.73" x2="362.18" y2="514.34" gradientUnits="userSpaceOnUse">
      <stop offset="0" stop-color="#d98b38"/>
      <stop offset="1" stop-color="#f0b540"/>
    </linearGradient>
    <linearGradient id="linear-gradient-2" x1="425.17" y1="490.52" x2="430.13" y2="514.28" gradientUnits="userSpaceOnUse">
      <stop offset="0" stop-color="#d98e3a"/>
      <stop offset="1" stop-color="#f0b944"/>
    </linearGradient>
    <linearGradient id="linear-gradient-3" x1="439.62" y1="369.39" x2="400.57" y2="423.85" gradientUnits="userSpaceOnUse">
      <stop offset="0" stop-color="#f9d853"/>
      <stop offset="1" stop-color="#f7af45"/>
    </linearGradient>
    <linearGradient id="linear-gradient-4" x1="382.25" y1="382.94" x2="356.55" y2="408.73" gradientUnits="userSpaceOnUse">
      <stop offset="0" stop-color="#da9d3c"/>
      <stop offset="1" stop-color="#d58541"/>
    </linearGradient>
    <linearGradient id="linear-gradient-5" x1="345.01" y1="339.88" x2="322" y2="351.68" gradientUnits="userSpaceOnUse">
      <stop offset="0" stop-color="#eeb23c"/>
      <stop offset="1" stop-color="#e69b39"/>
    </linearGradient>
    <linearGradient id="linear-gradient-6" x1="371.19" y1="324.53" x2="378.73" y2="364.46" gradientUnits="userSpaceOnUse">
      <stop offset="0" stop-color="#de9a46"/>
      <stop offset="1" stop-color="#efbf5a"/>
    </linearGradient>
    <linearGradient id="linear-gradient-7" x1="406.47" y1="108.48" x2="309.59" y2="174.33" gradientUnits="userSpaceOnUse">
      <stop offset="0" stop-color="#f7dd52"/>
      <stop offset="1" stop-color="#ecb04e"/>
    </linearGradient>
    <linearGradient id="linear-gradient-8" x1="432.92" y1="81.93" x2="436.97" y2="198.47" gradientUnits="userSpaceOnUse">
      <stop offset="0" stop-color="#fdf1b8"/>
      <stop offset="1" stop-color="#f8dd89"/>
    </linearGradient>
    <linearGradient id="linear-gradient-9" x1="491.52" y1="175.35" x2="489.59" y2="216.99" gradientUnits="userSpaceOnUse">
      <stop offset="0" stop-color="#ebb35f"/>
      <stop offset="1" stop-color="#fae170"/>
    </linearGradient>
    <linearGradient id="linear-gradient-10" x1="301.1" y1="180.81" x2="318.4" y2="206.7" gradientUnits="userSpaceOnUse">
      <stop offset="0" stop-color="#ed9043"/>
      <stop offset="1" stop-color="#f4bd2e"/>
    </linearGradient>
  </defs>
  <g id="Generative_Object" data-name="Generative Object">
    <path class="cls-59" d="M418.49,525.6c.15,1.07-.1,5.28,0,5.54.21.53,8.68,6.46,9.23,6.6.72.18,12.09.78,12.66.53,1.45-.65.68-2.16.26-3.17-.73-1.75-3.22-3.47-4.22-5.28-.09-.16-.05-.68-.53-1.58-.11-.2-.25-1.01-.53-1.58,28.41.25,58.56-.35,86.8,2.64,2.12.22,17.36,1.84,16.89,3.69-5.02,2.65-12.61,3.1-18.47,3.69-71.13,7.16-177.39,7.13-248.54,0-1.6-.16-19.94-1.96-18.47-4.22,33.91-6.69,69.58-4.84,104.22-6.33-.38.57-.48,1.51-.53,1.58-.64.95-.73,1.54-1.06,2.11-1.02,1.77-3.5,3.55-4.22,5.28-.54,1.3-1.12,2.1.26,3.17,3.72-1.45,9.24.29,12.66-.53.55-.13,9.05-6.06,9.23-6.6.33-.98-.18-3.65,0-5.01l44.32-.53Z"/>
    <g>
      <path class="cls-57" d="M521.39,292.89c-.09.48-.43.56-.53,1.06-8.11-3-8.06,1.2,0,1.58.51.02,1.07-.2,1.06.53-1.63.36-4.61.63-6.07,0-1.57-.68-2.84-4.89-.26-4.22,7.63-21.51,12.3-44.44,18.73-66.49-3.58,22.42-8.87,45-12.93,67.54Z"/>
      <path class="cls-65" d="M520.86,293.95c-.1.49.06,1.08,0,1.58-8.06-.38-8.11-4.58,0-1.58Z"/>
    </g>
    <g>
      <g>
        <path class="cls-45" d="M514,309.25c0,4.72-5.1.69-5.8,4.49l6.33,1.06-5.54.26c-2.99,4.63,3.65,3.43,6.6,4.22-.13,1.65,1.17,1.67,2.11,2.11.84,2.98,4.28,2.95,4.22,2.37-.14-1.39-3.34-1.96-4.22-2.37-.08-.27.04-.72,0-1.06,2.74.78,5.93.92,8.44,3.17-1.72,2.72-4.7,1.52-7.12,2.64-1.42.66-9.11,4.3-9.76,4.75l-10.55-12.66c.32-3.27,2.89-6.72,4.75-9.5l5.01,2.11c1.66-.63,3.76-1.57,5.54-1.58Z"/>
        <path class="cls-36" d="M406.35,298.69c.34,1.7.29,3.61.53,5.28-6.22,5.32-14.49,4.17-21.11.53,0-2.2.08-4.31,1.06-6.33,7.18,2.4,12.21,2.26,19.52.53Z"/>
        <path class="cls-45" d="M526.14,314.52c-15.2-2.87-13.71,1.5,0,2.11.03.28.62,1.56,1.06,1.58-.32,1.28-.37,4.19-1.06,5.28-2.51-2.25-5.7-2.38-8.44-3.17-.11-.03-.44-.61-2.11-1.06-2.94-.79-9.59.41-6.6-4.22l5.54-.26-6.33-1.06c.71-3.79,5.81.24,5.8-4.49,1.65-.01,11.94.63,12.4,1.06,1.05.98-.36,3.24-.26,4.22Z"/>
        <path class="cls-45" d="M515.58,300.81v2.11c-4.66.16-.98.74-3.17,2.64-1.39-3.23-4.36-2.22-4.75,1.06-5.25,1.04,1.2,1.35-1.85,2.64,2.89-.68,4.2-.21,7.39-.53.85-.08,2.49-1.57,2.64-1.58,1.39-.12,9.56,1.24,10.03,1.06.74-1.28-1.27-4.39-1.32-4.75-.04-.26.99-1.71.53-2.64h1.58c1.82,6.96,2.24,10.57.53,17.41-.43-.02-1.02-1.31-1.06-1.58s.1-1.05,0-2.11c-.09-.99,1.31-3.24.26-4.22-.46-.43-10.75-1.07-12.4-1.06-1.78.02-3.88.95-5.54,1.58l-5.01-2.11c1.21-1.8,1.23-4.66,4.22-4.49l-.79-.79c.03-.06,6.61-.89,3.96-1.58,1.45-.11,3.79-.98,4.75-1.06Z"/>
        <path class="cls-25" d="M385.77,304.5c6.61,3.64,14.89,4.79,21.11-.53.22,1.53,1.96,1.49.26,3.69-.37.48-9.95,5.78-10.55,5.8-.84.04-11.1-5.91-11.35-6.6-.4-1.13.53-1.96.53-2.37Z"/>
        <path class="cls-69" d="M509.25,330.88c-.47.32-1.36.84-1.58,1.06-2.59-1.58-7.52-4.34-8.44-7.39-.09-.3-.56-5.98-.53-6.33l10.55,12.66Z"/>
        <path class="cls-69" d="M517.69,321.38c.88.42,4.08.99,4.22,2.37.06.57-3.38.61-4.22-2.37Z"/>
        <path class="cls-69" d="M517.69,320.33c.04.34-.08.78,0,1.06-.94-.45-2.24-.46-2.11-2.11,1.67.45,2,1.02,2.11,1.06Z"/>
        <path class="cls-32" d="M526.14,314.52c.1,1.06-.03,1.84,0,2.11-13.71-.61-15.2-4.98,0-2.11Z"/>
        <path class="cls-32" d="M525.08,300.81c.46.93-.56,2.38-.53,2.64-2.98.51-6.17-.62-8.97-.53v-2.11c2.98-.23,6.45,0,9.5,0Z"/>
        <g>
          <path class="cls-45" d="M515.58,291.83c-2.58-.67-1.31,3.54.26,4.22,1.46.63,4.43.36,6.07,0,.89-.2,1.69-.64,2.64-.53,2.12,2.8,1.28,2.09,2.11,5.28h-1.58c-3.05,0-6.52-.23-9.5,0-.96.07-3.3.94-4.75,1.06-2.79.22-8.67,1.9-6.33-2.9,1.05-2.15,3.25-1.26,4.22-2.64.71-1,.63-5.66,2.37-6.6.53-.29,4.99-.19,4.49,2.11Z"/>
          <path class="cls-41" d="M505.82,298.69c.57-.31,5.48.03,6.6.26-.65,2.16-9.52,1.32-6.6-.26Z"/>
        </g>
        <path class="cls-45" d="M515.58,302.92c2.8-.1,5.99,1.04,8.97.53.05.36,2.06,3.47,1.32,4.75-.47.19-8.63-1.17-10.03-1.06-.15.01-1.79,1.5-2.64,1.58-3.19.32-4.5-.16-7.39.53,3.04-1.29-3.4-1.6,1.85-2.64,1.68-.33,3.1.38,4.75-1.06,2.18-1.9-1.49-2.48,3.17-2.64Z"/>
        <path class="cls-41" d="M512.42,305.55c-1.65,1.43-3.07.72-4.75,1.06.39-3.28,3.36-4.28,4.75-1.06Z"/>
        <g>
          <path class="cls-44" d="M439.07,434.31c-.4,7.57.11,16.15-.53,23.48-.12,1.34-2.4,4.43-2.64,6.33-.39,3.14,1.67,8.57,0,12.4-6.41,1.7-12.06,7.06-18.47,9.5-3.16-14.14-3.27-29.35-6.33-43.53,1.36-1.06,2.94-1.74,4.22-2.9,2.19,8.62,11.25,16.03,20.32,16.36l3.43-21.63Z"/>
          <path class="cls-44" d="M381.55,445.39c-.58,9.23-3.66,20.04-4.75,29.55l-2.37,10.03c-.84.4-15.38-7.44-16.62-8.44-2.33-1.88-.61-9.68-1.06-13.46-.9-7.64-1.71-12.44-2.11-20.84,2.68,1.67.88,14.05,1.85,14.77,8.69-.27,15-5.86,20.84-11.61,1.04-1.02,2.5-1.76,3.17-3.17.16.15.93-1.04,1.58.26-.89.71-.47,1.91-.53,2.9Z"/>
          <path class="cls-22" d="M375.22,487.6c-.88,9.41-.59,19.29-1.58,28.76,2.58-4.56,1.67-10.5,4.75-14.51-1.33,6.23-3.22,13.42-4.22,19.52-.84-.26-1.04.49-1.58.53-.17.01-.36,0-.53,0-2.78-.16-8.58-1.4-11.08-.53-2.29-14.46-2.05-29.29-3.69-43.8l17.94,10.03Z"/>
          <path class="cls-19" d="M432.21,521.37c-3.21.25-6.88-.35-10.03,0-.59.06-1.55.95-2.64.53-.07-.48-.56-1.01-1.06-1.06-.3-1.73-.73-3.52-1.06-5.28,1.24-.07,1.58-5.4,1.58-6.07.04-4.57-2.23-16.95-1.58-20.05.02-.1.94-.56,1.58-1.32,3.4-4.02,13.95-7.88,16.36-11.08l-3.17,44.32Z"/>
          <path class="cls-47" d="M441.18,418.48c-.18,1.51-1.54,1.26-1.58,1.85-.36,4.68-.28,9.32-.53,13.98l-3.43,21.63c-9.06-.33-18.12-7.74-20.32-16.36,6.87-6.21,15.33-11.28,21.11-18.47,1.51-.93,2.89-2.36,4.75-2.64Z"/>
          <path class="cls-27" d="M377.33,445.39c-5.84,5.75-12.15,11.33-20.84,11.61-.96-.73.83-13.1-1.85-14.77-.27-5.52.25-10.83-.53-16.36l23.22,19.52Z"/>
          <path class="cls-34" d="M353.59,437.47c.91,6.52-11.71,3.96-15.04,2.11-.49-.27-6.86-8.08-7.12-8.71-.38-.88.83-1.69.53-2.37.98.46,5.18.22,5.8,0,.8-.28,1.97-1.52,2.64-2.11,3.5,1.49-.94,2.96-1.06,3.96-.32,2.85,2.14,1.12,3.43,1.85,3.22,1.82,7.8,7.57,10.82,5.28Z"/>
          <path class="cls-52" d="M355.7,420.59l8.18,8.44c5.43,4.48,11.59,8.25,16.62,13.19-.67,1.41-2.12,2.14-3.17,3.17l-23.22-19.52c-.17-1.2.31-3.66,0-4.49-.54-1.45-2.35-.5-2.64-3.43,1.66.45,2.83,1.81,4.22,2.64Z"/>
          <path class="cls-34" d="M342.5,424.28c2.1,4.14,10.48,8.93,11.08,13.19-3.02,2.29-7.6-3.46-10.82-5.28-1.29-.73-3.75,1.01-3.43-1.85.11-.99,4.56-2.46,1.06-3.96.26-.23,2.05-1.97,2.11-2.11Z"/>
          <path class="cls-28" d="M376.28,482.85c-.08.79-.98,2.92-1.06,3.69-.03.34.03.71,0,1.06l-17.94-10.03c-.05-.48.59-.58.53-1.06,1.24,1.01,15.78,8.85,16.62,8.44l2.37-10.03c-.3,2.58-.25,5.34-.53,7.92Z"/>
          <path class="cls-56" d="M435.9,476.52c-.31.71-.51.5-.53.53-2.41,3.2-12.96,7.06-16.36,11.08-.63.12-1.1-.22-1.58-.53-.06-.5.11-1.1,0-1.58,6.41-2.44,12.06-7.8,18.47-9.5Z"/>
          <g>
            <path class="cls-6" d="M432.21,521.37c.84,1.8,2.31,3.53,3.17,5.28.28.57.42,1.38.53,1.58-1.86.94-4.59-.68-6.33-.53-2.56-.25-9.44-4.89-3.69-4.49l-3.69-1.85c3.14-.35,6.81.25,10.03,0Z"/>
            <path class="cls-53" d="M429.57,527.71c-1.81.16-4.56.51-5.01,2.64l11.87-.53c1,1.81,3.49,3.53,4.22,5.28-6.23.93-16.69,1.96-20.05-4.49-.67-1.28-.84-7.16-1.06-8.71,1.08.42,2.05-.46,2.64-.53l3.69,1.85c-5.75-.4,1.13,4.24,3.69,4.49Z"/>
            <path class="cls-48" d="M419.55,521.9c.22,1.54.39,7.43,1.06,8.71,3.36,6.45,13.82,5.42,20.05,4.49.42,1,1.19,2.52-.26,3.17-.58.26-11.95-.34-12.66-.53-.55-.14-9.02-6.07-9.23-6.6-.1-.26.15-4.47,0-5.54-.2-1.41.25-3.32,0-4.75.5.05.99.58,1.06,1.06Z"/>
            <path class="cls-48" d="M435.9,528.23c.47.9.44,1.42.53,1.58l-11.87.53c.45-2.13,3.2-2.48,5.01-2.64s4.48,1.47,6.33.53Z"/>
          </g>
          <path class="cls-33" d="M396.86,428.5c.43.81.88.85,1.06,1.06.5,1.65,4.89,9.89,6.07,10.03.36.04,5.71-2.72,6.6-3.17l3.17,3.43c-5.45,1.41-2.15,2.61-3.69,5.8-.7,1.44-5.7,5.62-7.39,6.6-.45-1.64-2.68-11.49-3.17-11.87-1.18-.93-5.41-.12-6.33-.26-.53-.08-2.32-1-2.64-1.06.9-2.07,2.08-4.95,3.17-6.86.6-1.06,1.94-3.15,3.17-3.69Z"/>
          <path class="cls-60" d="M415.32,439.58c-1.29,1.16-2.86,1.85-4.22,2.9,3.07,14.18,3.17,29.39,6.33,43.53.11.48-.06,1.08,0,1.58-1.76-1.13-2.91-3.69-5.28-3.43-.51.46.83,10.84,1.06,12.4-3.8-14.68-6.56-29.7-10.55-44.32,1.69-.98,6.69-5.16,7.39-6.6,1.55-3.2-1.76-4.4,3.69-5.8l-3.17-3.43c7.76-3.92,18.23-10.61,25.86-15.3-5.77,7.19-14.24,12.26-21.11,18.47Z"/>
          <path class="cls-60" d="M355.7,420.59c6.07,3.63,28.69,18.15,33.51,19.52.15.04.81-1.15,1.32-1.06.32.06,2.11.97,2.64,1.06-3.79,15.27-7.68,30.55-11.08,45.91-1.52-5.47-3.89,1.61-6.86.53.07-.77.97-2.91,1.06-3.69,3.63-4.52,13.76-25.73,12.66-30.34-.12-.5-5.86-7.13-7.39-7.12.06-.99-.36-2.19.53-2.9-.65-1.3-1.43-.11-1.58-.26-5.03-4.95-11.19-8.71-16.62-13.19l-8.18-8.44Z"/>
          <path class="cls-52" d="M376.28,482.85c.28-2.58.23-5.33.53-7.92,1.09-9.51,4.17-20.32,4.75-29.55,1.53,0,7.27,6.62,7.39,7.12,1.09,4.62-9.04,25.82-12.66,30.34Z"/>
          <path class="cls-27" d="M382.08,486.02c-1.17,5.28-2.57,10.57-3.69,15.83-3.08,4.01-2.17,9.95-4.75,14.51.99-9.47.7-19.35,1.58-28.76.03-.34-.03-.71,0-1.06,2.97,1.08,5.34-6,6.86-.53Z"/>
          <g>
            <path class="cls-6" d="M372.05,521.9c-.8,1.94-4.59,4.65-6.33,5.28-2.29.82-6.17,1.58-8.44.53.05-.07.14-1.02.53-1.58.63-.93,2.53-4.53,3.17-4.75,2.5-.88,8.3.37,11.08.53Z"/>
            <path class="cls-48" d="M374.17,521.37c-.23,1.42.19,3.28,0,4.75-.18,1.36.33,4.03,0,5.01-.18.54-8.68,6.46-9.23,6.6-3.42.82-8.95-.93-12.66.53-1.39-1.07-.8-1.87-.26-3.17,6.29,1.13,11.48,1.71,15.3-3.96-.27-2.5-9.45-.03-11.08-1.32.33-.57.41-1.16,1.06-2.11,2.27,1.05,6.15.29,8.44-.53l4.49,3.69c2.35-2.44,3.95-5.61,2.37-8.97.54-.04.74-.78,1.58-.53Z"/>
            <path class="cls-53" d="M352,535.09c.72-1.73,3.2-3.51,4.22-5.28,1.63,1.29,10.82-1.18,11.08,1.32-3.82,5.67-9.02,5.09-15.3,3.96Z"/>
            <path class="cls-53" d="M365.72,527.18c1.74-.62,5.53-3.33,6.33-5.28.17,0,.36.01.53,0,1.58,3.36-.03,6.53-2.37,8.97l-4.49-3.69Z"/>
          </g>
          <path class="cls-27" d="M417.43,487.6c.48.31.95.65,1.58.53-.64.76-1.56,1.22-1.58,1.32-.65,3.1,1.63,15.48,1.58,20.05,0,.67-.34,6-1.58,6.07-1.18-6.35-3.28-12.53-4.22-19-.23-1.56-1.56-11.94-1.06-12.4,2.36-.26,3.52,2.3,5.28,3.43Z"/>
          <g>
            <path class="cls-18" d="M435.9,339.85c-.25,1.63-.4,3.1-.53,4.75-.26,3.33-.54,9.61.53,12.14-.54,10.8-1.18,23.32,0,34.04.86,7.83,4.22,16.29,4.75,24.54l-34.04,20.58c-1.1.05-7.82-5.28-8.71-6.33-.18-.21-.63-.24-1.06-1.06-.02-.04,1.07.42.79-.53-.1-.34-1.28-1.05-1.32-1.32-.23-1.72-.23-12.98.26-13.46.32-.31,7.07-.32,5.54-3.17,1.23-1.03,1.54-2.67,1.58-4.22.12-4.38-3.06-7.54-6.86-5.28-.8.47-1.28,1.19-2.11,1.58-.2-2.56-1.34-5.33,0-7.92,1.58.32,5.44-.07,6.33-1.85-3.66-.5-4.99-.07-7.39-2.9-.09-.1-.23-2.3-.53-2.64l2.64-2.11c1.52,3.46,3.01,3.05,5.28,1.58,10.17-6.58,24.39-33.97,32.19-44.32.1-.13,2.2-2.06,2.64-2.11Z"/>
            <path class="cls-17" d="M360.97,345.66c.8.54,7.51,10.93,8.97,12.93,1.72,2.35,3.68,5.42,5.8,8.18,5.07,6.58,10.26,12.83,15.83,19,.2.22,1.39.84,1.58,1.06.3.34.44,2.54.53,2.64-3.86-.94-1.72,4.18,1.06,4.75-1.34,2.59-.2,5.36,0,7.92.16,2.11-.83,4.14,1.06,6.86-4.8-1.42-.78,6.61,1.06,1.58,1.22.63,4.12.44,5.28-.53,1.53,2.84-5.22,2.86-5.54,3.17-.49.48-.49,11.73-.26,13.46.04.27,1.22.98,1.32,1.32.28.94-.81.49-.79.53-1.22.54-2.57,2.64-3.17,3.69.87-4.02-5.84,3.79-7.65,3.69-1.17-.06-5.88-4.25-6.86-4.75-9.55-4.85-19.56-8.9-26.65-17.41,1.6-13,4.11-22.34,4.75-35.88l13.98,6.33.79-1.32c-5-11.99-8.43-24.58-13.19-36.67-1.01-1.22,1.99-.61,2.11-.53Z"/>
            <path class="cls-44" d="M507.67,331.94c-.88.85-4.6,7.84-6.33,10.03s-4.9,5.11-6.33,7.12c-5.28,7.41-8.61,16.89-15.3,23.48.24-.96,1.79-9.05-.26-8.97l-10.03,13.19-5.01-17.41c1.83-2.21,5.11-3.76,7.39-5.54.22-.42-.97-1.3-1.06-1.32l28.49-27.97c.92,3.04,5.86,5.8,8.44,7.39Z"/>
            <path class="cls-14" d="M350.42,330.35c-2.1-.24-1.45.41-1.58,1.85-1.49,15.68-1.59,16.99-12.66,28.23-1.22,1.24-4.93,2.75-5.28,3.43-.08.15,1.6.35,1.06,1.06-1.12,1.46-3.65,2.07-4.22,3.96-.35-.18-.69.79-1.32.53-.82-.34-3.81-3.59-3.96-1.06-1.81-1.41-3.77-3.25-5.8-4.22.7-1.25-.01-1,0-1.06.17-.71,1.02-1.1,1.06-1.32.07-.53-2.5.56-.53-3.17,1.69-3.21,30.48-40.02,32.72-41.42-.45,4.41.42,8.83.53,13.19Z"/>
            <path class="cls-57" d="M336.7,382.07c1.93,8.92,6.14,29.34,6.33,37.73.04,1.69.2,2.87-.53,4.49-.06.14-1.85,1.88-2.11,2.11-.67.59-1.84,1.83-2.64,2.11-1.2-5.8-2.38-11.79-4.22-17.41-1.66-5.07.16-7.52-6.86-5.8-.26-.86.52-2.59-.79-3.17-.57-.25-3.95,0-5.01,0-2.65-6.13-5.48-12.48-8.44-18.47,8.13-1.63,17.88,4.89,24.27-1.58Z"/>
            <path class="cls-54" d="M443.82,318.22c6.41,6.91,21.1,25.74,25.33,33.77-4.17,4.29-10.17,3.87-15.57,4.75-1.62.7,1.01,7.22.79,9.5-.13,1.3-.87,2.63-2.11,3.17-.01-6.99-7.36-21.61-7.39-29.29-.01-4.24,2.13-1.08,2.64-3.69.36-1.84-3.96-11.15-4.75-13.46-.26-.76-.61-2.41,0-3.17.25-.41-.61-1.88,1.06-1.58Z"/>
            <path class="cls-39" d="M442.76,316.64c-6-1.39-12.31-2.41-18.2-4.22-8.39-2.58-9.2-9.2-12.4,3.17-.96,3.72-1.02,7.91-2.11,11.61-.61,2.07-1.62,4.29-2.37,6.33-1,.33-2.73-3.94-4.49-4.75,1.55-2.15-6.37-13.31-7.12-13.19-3.6,3.79-4.88,9.23-7.12,13.19-.92,1.62-2.78,2.88-3.43,4.75-.29.01-2.18-4.65-2.37-5.28-.54-1.69-.61-4.01-1.06-5.8v-7.65l-1.58-6.33c3.16-2.65,3.79.91,6.6,2.37,1.14.6,7.98,4.15,8.44,4.22,3.66.57,13.93-7.84,14.77-7.92.39-.03,1.98,1.58,2.11,1.58,8.85.08,4.97.95,11.08,2.64,4.44,1.22,17.03,3.36,19.26,5.28Z"/>
            <path class="cls-3" d="M358.86,346.19c4.76,12.1,8.19,24.68,13.19,36.67l-.79,1.32-13.98-6.33c.34-7.12.07-14.52,0-21.63-.02-2.55.88-7.42.53-11.08.25.05,1.03.99,1.06,1.06Z"/>
            <path class="cls-3" d="M442.76,319.8c-.61.76-.26,2.4,0,3.17l-1.06,38.78c1.69,1.65,10.57,16.31,10.55,7.65,1.24-.54,1.99-1.87,2.11-3.17h.53c-.25,1.79,1.94,12.99,3.69,13.72-.72,1.01-2.04,1.37-3.17.79-1.27-.66-16.39-19.97-17.94-22.43,1.53-4.52-.22-9.21-.53-13.72-.13-1.98.53-4.61-.53-6.33.26-1.39.72-2.82,1.06-4.22.17-.71.76-1.6,1.06-2.64.62-2.15.99-5.04,1.58-6.86s1.98-3.67,2.64-4.75Z"/>
            <path class="cls-57" d="M380.5,314c-.85.37-.61,2.41-.53,3.17l-1.06-6.6c-1.56-1.12-2.32.62-3.17.79-.07.01-.31-1.08-1.32-.53-1.69.93-4.63,6.69-7.12,8.97l-2.37-3.69c-.81,1.88-.78,3.85-1.32,5.8-.35,1.28-.63,2.42-1.06,3.69-.35,1.05-.7,2.11-1.06,3.17l.26-4.22-8.71,3.69-3.17-11.08c3.35-2.11,14.29-3.47,18.73-4.75.6-.17,4.98-3.1,5.28-3.17,5.76-1.18,5.46.4,6.6,4.75Z"/>
            <path class="cls-52" d="M326.67,405.29c.66,2.23.7,4.62,1.32,6.86l5.54-1.06c1.85,5.63,3.02,11.61,4.22,17.41-.63.22-4.82.46-5.8,0-3.86-8.73-7.3-17.64-11.08-26.38,1.06,0,4.44-.25,5.01,0,1.32.58.54,2.3.79,3.17Z"/>
            <path class="cls-44" d="M442.76,316.64c.26.49.69,1.19,1.06,1.58-1.66-.3-.81,1.18-1.06,1.58-.66,1.08-2.03,2.88-2.64,4.75-3.16.43-6.01-1.03-8.97-1.58v-.53c3.01-7.69-.28-6.1-5.28-7.39-2.72-.7-5.52-.7-7.65-2.64-.83.67-.91,1.71-1.32,2.64-.58,1.33-.87,2.24-.79,3.69l-3.43-.53c.08-.65.31-2.43-.53-2.64,3.2-12.36,4.01-5.75,12.4-3.17,5.89,1.81,12.2,2.83,18.2,4.22Z"/>
            <path class="cls-60" d="M351.48,358.85c0,.54-1.46,2.91,0,3.69-4.6,5.68-9.71,11.08-14.77,16.36-.41-1.55-1.02-1.49-1.06-1.58-.55-1.37-.43-2.37-1.58-3.69,3.61-4.62,6.94-9.65,10.55-14.25,1.86-2.37,4.64-4.72,6.33-7.39.06,2.24.51,4.75.53,6.86Z"/>
            <path class="cls-44" d="M393.69,432.2c-1.08,1.91-2.27,4.79-3.17,6.86-.51-.1-1.16,1.1-1.32,1.06-4.81-1.37-27.44-15.9-33.51-19.52-1.39-.83-2.56-2.19-4.22-2.64-.09-.94.93-3.22,1.06-4.22,7.09,8.51,17.1,12.57,26.65,17.41.98.5,5.69,4.68,6.86,4.75,1.82.1,8.52-7.71,7.65-3.69Z"/>
            <path class="cls-5" d="M440.65,415.31c.04.56.7,1.68.53,3.17-1.86.28-3.24,1.71-4.75,2.64-7.63,4.7-18.1,11.39-25.86,15.3-.89.45-6.23,3.21-6.6,3.17-1.18-.13-5.57-8.38-6.07-10.03.88,1.05,7.6,6.38,8.71,6.33l34.04-20.58Z"/>
            <path class="cls-52" d="M462.29,359.38c-1.14,2.13-2.9,9.05-3.17,11.61-.15,1.45-.01,7.04,0,8.97h-.53c-1.75-.73-3.95-11.93-3.69-13.72.08-.6,7.14-11.14,7.39-6.86Z"/>
            <path class="cls-44" d="M469.67,352.52c-.08.03.18,1.12-.79,1.58-3.61,1.74-4.57,1.48-6.6,5.28-.25-4.28-7.3,6.26-7.39,6.86h-.53c.22-2.27-2.41-8.8-.79-9.5,5.4-.88,11.4-.45,15.57-4.75.02.03.62-.08.53.53Z"/>
            <path class="cls-38" d="M470.73,352.52c.08.02,1.28.9,1.06,1.32-2.27,1.78-5.56,3.34-7.39,5.54-1.16,1.4-1.37,2.69-2.11,4.22-1.18,2.45-1.64,5.14-3.17,7.39.27-2.56,2.03-9.48,3.17-11.61,2.03-3.8,2.98-3.54,6.6-5.28.97-.47.71-1.55.79-1.58.14-.06.85-.06,1.06,0Z"/>
            <path class="cls-52" d="M436.96,344.6c.31,4.51,2.06,9.2.53,13.72-.33-.52-1.54-1.48-1.58-1.58-1.06-2.52-.79-8.8-.53-12.14h1.58Z"/>
            <path class="cls-49" d="M356.75,348.3c-.03,1.87.37,6.65,0,7.92-.59,1.99-3.9,4.63-5.28,6.33-1.46-.78,0-3.16,0-3.69,6.26,1.52,2.2-7.69,5.28-10.55Z"/>
            <path class="cls-33" d="M357.81,345.13c.35,3.66-.55,8.53-.53,11.08h-.53c.37-1.26-.03-6.04,0-7.92.02-1.27.24-2.56-.53-3.69.33-.8.14-3.11,1.06-3.69.2,1.17.41,3,.53,4.22Z"/>
            <path class="cls-2" d="M382.08,322.44c.45,1.79.52,4.11,1.06,5.8l-.53.53c-.79-3.8-2.22-7.74-2.64-11.61-.08-.76-.32-2.8.53-3.17.65,2.47.91,5.74,1.58,8.44Z"/>
            <path class="cls-15" d="M379.97,317.16c.42,3.87,1.84,7.81,2.64,11.61s1.75,7.72,2.64,11.61c1.38,6.02,2.66,11.96,4.22,17.94,2.05,7.85,3.76,16.06,6.33,23.75.5,1.5-.05,2.52,0,2.64l-2.64,2.11c-.2-.22-1.38-.83-1.58-1.06-3.93-6.95-9.14-13.04-13.72-19.52-4.26-6.03-13.26-17.04-16.36-22.69-.24-.44-1.1-1.77-.79-2.11,1.87-1.41,6.25.92,6.6-2.11,3.64.63,7.28,1.98,11.08,1.32-1.69-1.73-17.36-3.66-17.94-5.28,1.96-2.9,3.94-5.75,5.8-8.71,3.21-5.07,6.84-9.89,9.5-15.3.85-.18,1.6-1.91,3.17-.79l1.06,6.6Z"/>
            <path class="cls-44" d="M418.49,316.64c-.49.78-.36,2.38-.53,3.17-.01.06-1.77-.21-.79,1.06,3.43.51,6.89.92,10.29,1.58-2.53,1.52.69,3.81,1.58,5.28,1.41,2.3,1.72,4.81,4.75,5.8l-3.17,2.64c-5.44.94-10.63,3.33-16.09,4.22,1.05,1.25,3.1.11,4.49,0l12.14,2.11-30.08,43.8c-2.27,1.47-3.76,1.88-5.28-1.58-.05-.12.5-1.14,0-2.64l5.28-13.98c.71-3.9,1.99-6.69,2.11-10.82,3.2-8.67,4.91-17.9,6.86-26.91.19-.86.35-1.77.53-2.64.64-3.11,1.74-6.33,2.11-9.5l3.43.53c-.08-1.46.21-2.36.79-3.69l1.58,1.58Z"/>
            <path class="cls-57" d="M433.27,341.96c-7.8,10.36-22.02,37.74-32.19,44.32l30.08-43.8,2.11-.53Z"/>
            <path class="cls-65" d="M437.49,334.05c-.33,1.4-.79,2.83-1.06,4.22-.02.08-.37.57-.53,1.58-.44.05-2.54,1.98-2.64,2.11l-2.11.53-12.14-2.11c2.41-.2,16.81-1.63,15.83-4.49-.44-1.28-3.32.11-4.22.26l3.17-2.64c.77.25,2.59-.1,3.69.53Z"/>
            <path class="cls-5" d="M403.72,405.81c-.04,1.55-.36,3.19-1.58,4.22-1.15.97-4.06,1.16-5.28.53-.08-.04-.86-1.3-1.06-1.58-1.89-2.72-.89-4.75-1.06-6.86.83-.39,1.31-1.11,2.11-1.58.44,2.34,4.34,8.09,6.86,5.28Z"/>
            <path class="cls-58" d="M403.72,405.81c-2.52,2.81-6.42-2.94-6.86-5.28,3.8-2.26,6.98.9,6.86,5.28Z"/>
            <path class="cls-52" d="M393.69,389.45c2.4,2.83,3.73,2.4,7.39,2.9-.9,1.78-4.75,2.17-6.33,1.85-2.78-.57-4.92-5.69-1.06-4.75Z"/>
            <path class="cls-11" d="M436.96,344.6h-1.58c.13-1.65.28-3.12.53-4.75.16-1.01.51-1.5.53-1.58,1.06,1.73.39,4.36.53,6.33Z"/>
            <path class="cls-7" d="M377.86,366.24l-2.11.53c-2.13-2.76-4.09-5.82-5.8-8.18-1.46-2-8.17-12.39-8.97-12.93l.53-2.11c3.09,5.65,12.1,16.66,16.36,22.69Z"/>
            <path class="cls-54" d="M359.39,337.74c2.66.45,5.24,1.12,7.92,1.58-.34,3.03-4.72.7-6.6,2.11-.31.35.55,1.67.79,2.11l-.53,2.11c-.12-.08-3.12-.69-2.11.53-.03-.07-.81-1.01-1.06-1.06-.12-1.22-.33-3.05-.53-4.22-.14-.81-.82-2.08-1.06-3.17,1.19-.99,2-.2,3.17,0Z"/>
            <path class="cls-23" d="M377.86,366.24c4.58,6.48,9.79,12.58,13.72,19.52-5.57-6.17-10.76-12.42-15.83-19l2.11-.53Z"/>
            <path class="cls-52" d="M395.8,408.98c.2.28.97,1.54,1.06,1.58-1.83,5.03-5.85-3-1.06-1.58Z"/>
            <path class="cls-57" d="M479.7,372.57c-2.8,11.17-6.26,12.63-17.68,11.61-3.72-6.01-1.02-13.92.26-20.58.74-1.54.95-2.82,2.11-4.22l5.01,17.41,10.03-13.19c2.05-.08.5,8.02.26,8.97Z"/>
            <path class="cls-3" d="M350.42,330.35c.17,6.86.33,13.72.53,20.58,0,.35,0,.71,0,1.06-1.69,2.67-4.47,5.02-6.33,7.39l-8.44,1.06c11.07-11.24,11.18-12.55,12.66-28.23.14-1.44-.52-2.09,1.58-1.85Z"/>
            <path class="cls-37" d="M353.06,328.24c.42,3.26,2.52,6.56,3.17,9.5.24,1.08.92,2.36,1.06,3.17-.92.58-.73,2.89-1.06,3.69-.98,2.38-3.25,4.76-5.28,6.33-.2-6.86-.36-13.72-.53-20.58-.1-4.36-.98-8.78-.53-13.19l3.17,11.08Z"/>
            <path class="cls-27" d="M344.62,359.38c-3.61,4.6-6.94,9.63-10.55,14.25-.26-.3-5.94-4.55-6.33-4.75.57-1.89,3.1-2.5,4.22-3.96.54-.7-1.13-.9-1.06-1.06.35-.68,4.06-2.19,5.28-3.43l8.44-1.06Z"/>
            <g>
              <path class="cls-63" d="M322.45,368.35c3.31,2.57,8.96,6.01,11.08,9.5.1.17-.11.84,0,1.06l-23.75,1.06c-.05-.14.02-.34,0-.53,2.2-2.29,1.62-7.02,2.64-9.76.88-2.37,3.39-4.05,4.22-5.54,2.04.97,3.99,2.81,5.8,4.22Z"/>
              <path class="cls-49" d="M333.53,378.9c.67,1.35,3.22,3.54-1.32,4.75-1.51.4-18.7-.99-20.32-1.58-.14-.05-1.88-1.43-2.11-2.11l23.75-1.06Z"/>
              <path class="cls-54" d="M335.64,377.32c.04.09.64.03,1.06,1.58.22.84-.2,2.26,0,3.17-6.4,6.47-16.15-.05-24.27,1.58-.27-.54-.68-.9-.53-1.58,1.62.6,18.8,1.99,20.32,1.58,4.54-1.21,1.99-3.4,1.32-4.75-.11-.21.1-.88,0-1.06l2.11-.53Z"/>
              <path class="cls-5" d="M327.73,368.88c.39.2,6.07,4.45,6.33,4.75,1.15,1.32,1.03,2.32,1.58,3.69l-2.11.53c-2.13-3.49-7.77-6.93-11.08-9.5.15-2.54,3.14.72,3.96,1.06.63.26.97-.71,1.32-.53Z"/>
            </g>
            <path class="cls-27" d="M333.53,411.09l-5.54,1.06c-.62-2.24-.66-4.63-1.32-6.86,7.02-1.72,5.2.73,6.86,5.8Z"/>
            <path class="cls-44" d="M452.26,369.4c.02,8.65-8.86-6-10.55-7.65l1.06-38.78c.79,2.31,5.11,11.62,4.75,13.46-.51,2.62-2.65-.55-2.64,3.69.03,7.67,7.38,22.29,7.39,29.29Z"/>
            <path class="cls-9" d="M403.19,328.77c-.12-.06-1.42,1.16-2.64-.53-.05-.58,1.3-.62.53-2.9-.19-.55-4.15-4.98-4.49-5.01-.57-.06-5.38,4.63-5.54,5.01-.5,1.18.55,1.25.53,1.32-.36,1-.55,1.88-1.06,3.17l-1.58-1.06c2.25-3.96,3.52-9.4,7.12-13.19.76-.11,8.67,11.04,7.12,13.19Z"/>
            <path class="cls-41" d="M410.57,327.72c-.18.87-.34,1.78-.53,2.64l-3.43,10.03c-1.79.42-2.75-9.74-5.54-6.86-.18-1.76-.37-3.49-.53-5.28,1.22,1.69,2.52.47,2.64.53,1.75.81,3.49,5.07,4.49,4.75.75-2.05,1.76-4.27,2.37-6.33l.53.53Z"/>
            <path class="cls-41" d="M388.94,328.77l1.58,1.06c-1.17,2.96-1.8,9.3-5.28,10.55-.89-3.89-1.82-7.68-2.64-11.61l.53-.53c.2.63,2.09,5.29,2.37,5.28.65-1.87,2.51-3.13,3.43-4.75Z"/>
            <path class="cls-4" d="M412.69,318.22c-.37,3.17-1.47,6.38-2.11,9.5l-.53-.53c1.09-3.7,1.15-7.89,2.11-11.61.83.21.6,1.99.53,2.64Z"/>
            <path class="cls-54" d="M431.15,322.97c2.96.56,5.81,2.02,8.97,1.58-.59,1.82-.97,4.71-1.58,6.86l-9.5-3.69c-.9-1.47-4.11-3.76-1.58-5.28,1.25.24,2.52.31,3.69.53Z"/>
            <path class="cls-42" d="M438.54,331.41c-.3,1.04-.89,1.92-1.06,2.64-1.1-.63-2.93-.27-3.69-.53-3.03-1-3.34-3.5-4.75-5.8l9.5,3.69Z"/>
            <path class="cls-44" d="M361.5,328.77c-1.07,3.15-4.59,6.93-2.11,8.97-1.17-.2-1.98-.99-3.17,0-.65-2.94-2.74-6.24-3.17-9.5l8.71-3.69-.26,4.22Z"/>
            <path class="cls-3" d="M366.25,326.66c-1.87,2.95-3.85,5.81-5.8,8.71.59,1.62,16.25,3.55,17.94,5.28-3.8.66-7.44-.69-11.08-1.32-2.67-.46-5.26-1.13-7.92-1.58-2.48-2.04,1.04-5.82,2.11-8.97.36-1.05.7-2.11,1.06-3.17l3.69,1.06Z"/>
            <path class="cls-52" d="M375.75,311.36c-2.66,5.42-6.29,10.24-9.5,15.3l-3.69-1.06c.42-1.27.7-2.42,1.06-3.69.94.83,2.62-1.13,3.69-2.11,2.49-2.28,5.43-8.04,7.12-8.97,1.01-.56,1.25.54,1.32.53Z"/>
            <path class="cls-52" d="M367.31,319.8c-1.07.98-2.75,2.94-3.69,2.11.54-1.95.51-3.92,1.32-5.8l2.37,3.69Z"/>
            <path class="cls-44" d="M425.88,315.05c5,1.29,8.29-.3,5.28,7.39l-13.19-2.64c.16-.78.04-2.38.53-3.17,2.55-4.06,3.37.24,7.39-1.58Z"/>
            <path class="cls-60" d="M417.96,319.8l13.19,2.64v.53c-1.17-.22-2.44-.28-3.69-.53-3.4-.67-6.86-1.07-10.29-1.58-.98-1.27.78-.99.79-1.06Z"/>
            <path class="cls-5" d="M425.88,315.05c-4.02,1.82-4.84-2.48-7.39,1.58l-1.58-1.58c.41-.93.49-1.97,1.32-2.64,2.13,1.93,4.93,1.94,7.65,2.64Z"/>
            <path class="cls-52" d="M356.75,348.3c-3.08,2.87.98,12.07-5.28,10.55-.02-2.11-.47-4.62-.53-6.86,0-.35,0-.71,0-1.06,2.02-1.57,4.3-3.96,5.28-6.33.77,1.14.55,2.42.53,3.69Z"/>
            <path class="cls-43" d="M400.55,328.24c.16,1.78.35,3.51.53,5.28.69,6.79,2.3,17.34,2.11,23.75-.12,4.12-1.4,6.91-2.11,10.82l-5.28,13.98c-2.57-7.69-4.29-15.89-6.33-23.75l2.11-31.66c.02-.07-1.02-.14-.53-1.32.16-.38,4.97-5.07,5.54-5.01.33.03,4.3,4.46,4.49,5.01.77,2.28-.58,2.32-.53,2.9Z"/>
            <path class="cls-39" d="M389.47,358.32c-1.56-5.98-2.84-11.92-4.22-17.94,3.48-1.26,4.1-7.59,5.28-10.55.51-1.29.69-2.17,1.06-3.17l-2.11,31.66Z"/>
            <path class="cls-39" d="M403.19,357.27c.19-6.41-1.42-16.95-2.11-23.75,2.79-2.88,3.75,7.28,5.54,6.86l3.43-10.03c-1.94,9.01-3.65,18.24-6.86,26.91Z"/>
            <path class="cls-44" d="M419.02,340.38c-1.39.11-3.44,1.25-4.49,0,5.47-.89,10.66-3.28,16.09-4.22.9-.15,3.78-1.54,4.22-.26.98,2.86-13.42,4.29-15.83,4.49Z"/>
          </g>
        </g>
      </g>
      <g>
        <path class="cls-31" d="M317.7,231.15c-.9,4.3-8.24,13.6-8.97,19,.32,2.61,29.55,22.2,33.77,24.8,9.86,6.08,20.09,11.48,30.61,16.36,4.2,1.95,8.85,4.82,13.19,6.33l-72.03-20.58c-5.65-8.51-9.67-17.96-14.51-26.91,4.63-6.56,9.01-13.19,13.19-20.05.02-.03.16.09.53-.53l4.22,1.58Z"/>
        <path class="cls-31" d="M479.7,230.62c3.95,6.82,8.76,13.04,13.19,19.52-4.88,8.93-9.08,18.27-14.51,26.91l-70.97,20.58-1.06-.26c27.99-11.34,54.05-27.52,77.57-46.44v-1.32c-1.88-5.44-6.37-11.54-7.92-16.89l2.64-3.17c.44.81,1.02.99,1.06,1.06Z"/>
        <path class="cls-63" d="M287.1,219.01c5.88,2.5,9.54,3.82,15.83,5.28.94,3.31,6.74,4.83,10.03,5.8-4.18,6.86-8.57,13.5-13.19,20.05-4.37-8.08-14.63-24.24-16.89-32.19,1.03-.43,3.2.62,4.22,1.06Z"/>
        <path class="cls-57" d="M510.31,217.43c-5.45,11.09-11.49,21.88-17.41,32.72-4.43-6.49-9.25-12.7-13.19-19.52,6.37-2.28,12.31-5.72,18.47-8.44,3.82-1.69,7.93-2.74,11.61-4.75h.53Z"/>
        <path class="cls-57" d="M327.2,252.79c-.2,2.46.41,4.98-.53,7.39-5.34-3.61-12-7.78-17.94-10.03.73-5.39,8.07-14.7,8.97-19,.46-2.21.23-7.06.53-10.03,1.34.04,3.46,13.02,4.22,15.04,3.5,9.26,5.73,4.85,4.75,16.62Z"/>
        <path class="cls-21" d="M326.67,260.17c1.74,1.17,3.2,2.56,4.75,3.69,1.73,1.27,11.33,7.52,11.61,8.18.42.99-.57,1.96-.53,2.9-4.22-2.6-33.45-22.19-33.77-24.8,5.94,2.25,12.6,6.41,17.94,10.03Z"/>
        <path class="cls-20" d="M317.7,231.15l-4.22-1.58c1.45-2.41,2.45-6.42,4.75-8.44-.3,2.97-.06,7.82-.53,10.03Z"/>
        <path class="cls-47" d="M474.42,217.43c.13,1.72-.11,3.6,0,4.75.41,4.08.52,6.9,1.58,10.55,1.55,5.34,6.03,11.45,7.92,16.89-5.96,3.48-12.18,6.75-17.94,10.55l-1.06-6.86c.21-1.86.57-6.7.53-8.44,4.29-7.23,8.3-17.07,7.92-25.33-.03-.55.45-.76,0-2.11h1.06Z"/>
        <path class="cls-20" d="M478.65,229.57l-2.64,3.17c-1.06-3.65-1.17-6.47-1.58-10.55,1.23-.17,1.62.99,2.11,1.85.84,1.47,1.61,4.62,2.11,5.54Z"/>
        <g>
          <path class="cls-13" d="M396.33,69.68c-.88,25.23-1.22,50.47-.53,75.72-9.22,8.27-18.33,16.68-27.44,25.06-14.98,13.77-30.34,27.21-45.64,40.63-.83-20.39-.64-40.84-1.85-61.21-.1-1.71.81-5.06-.53-4.75l75.99-75.46Z"/>
          <path class="cls-12" d="M405.83,78.65c17.17,16.44,54.06,48.46,66.49,65.96h-.53c-2.09,21.81.56,44.2-1.58,65.96-.16.91-1.59-.31-1.85-.53-23.92-20.16-46.36-44.38-70.44-64.64l-1.06-73.35c.87-2.18,7.5,5.19,8.97,6.6Z"/>
          <path class="cls-16" d="M510.31,217.43h-.53c-8.39,2.43-17.63,3.95-25.86,6.86-.44-.61-.39-.97-.53-1.58-3.83-17.2-5.69-37.48-7.92-55.14-.07-.59-.47-3.78-1.58-3.43-.22-3.28.01-8.29-1.58-11.08-.1-2.77-.94-5.59-.53-8.44h.53c8.77,12.34,31.09,54.1,36.94,68.33.45,1.09.8,2.25,1.58,3.17l-.53,1.32Z"/>
          <path class="cls-46" d="M320.87,149.89l-3.17,24.8c-.01-.14-.85-1.91-.79-2.64l-8.18,51.71-21.63-4.75c-1.02-.43-3.19-1.49-4.22-1.06-.03-.1-1.23-.14-1.06-1.85l38.52-70.97c1.34-.31.43,3.04.53,4.75Z"/>
          <path class="cls-58" d="M405.83,78.65c-1.47-1.41-8.1-8.78-8.97-6.6l1.06,73.35c24.09,20.26,46.52,44.48,70.44,64.64.26.22,1.68,1.44,1.85.53-.01.11.68,1.25,0,2.11-1.71-1.93-5.06-3.54-6.86-5.28-21.55-20.78-44.59-40.03-66.75-60.16-9.16,8.16-18.54,16.12-27.7,24.27l-.53-1.06c9.11-8.38,18.22-16.79,27.44-25.06-.69-25.25-.35-50.49.53-75.72,2.27-.21,8.14,6.68,9.5,8.97Z"/>
          <path class="cls-5" d="M368.36,170.47l.53,1.06c-12.06,10.74-23.93,21.84-35.88,32.72-5.15,4.68-12.28,8.1-14.25,15.3-.03.02.08.62-.53.53.76-7.98,2.36-27.57,1.06-34.83l1.58-35.35c1.2,20.37,1.02,40.82,1.85,61.21,15.3-13.42,30.67-26.86,45.64-40.63Z"/>
          <path class="cls-56" d="M472.31,153.06c.79,21.41.46,43.02,2.11,64.38h-1.06c-.32-.97-2.43-3.92-3.17-4.75.68-.86-.01-2.01,0-2.11,2.14-21.76-.51-44.15,1.58-65.96-.41,2.85.43,5.67.53,8.44Z"/>
          <path class="cls-63" d="M473.9,164.14c1.35,20.03,3.93,39.92,5.8,59.89,1.13,1.48,3.03.31,3.69-1.32.14.62.09.97.53,1.58-.41.15-5.57,2.1-2.9,2.64,1.15.23,14.58-4.64,17.15-4.75-6.15,2.72-12.09,6.16-18.47,8.44-.04-.06-.61-.24-1.06-1.06-.5-.92-1.27-4.07-2.11-5.54-.49-.86-.88-2.02-2.11-1.85-.11-1.15.13-3.03,0-4.75-1.65-21.35-1.32-42.97-2.11-64.38,1.6,2.79,1.36,7.8,1.58,11.08Z"/>
          <path class="cls-44" d="M483.39,222.71c-.66,1.63-2.56,2.79-3.69,1.32-1.88-19.97-4.46-39.86-5.8-59.89,1.12-.35,1.51,2.84,1.58,3.43,2.22,17.66,4.09,37.94,7.92,55.14Z"/>
          <path class="cls-56" d="M509.78,217.43c-3.68,2.01-7.79,3.06-11.61,4.75-2.57.11-16,4.98-17.15,4.75-2.67-.54,2.49-2.49,2.9-2.64,8.22-2.91,17.47-4.43,25.86-6.86Z"/>
          <path class="cls-47" d="M317.7,174.69c.2,1.82-.43,3.48-.53,5.28-.84,14.72-3.28,29.4-4.75,44.06l-3.17.26s-.62.08-.53-.53l8.18-51.71c-.06.73.78,2.5.79,2.64Z"/>
          <path class="cls-52" d="M320.87,149.89l-1.58,35.35c-.07-.39-2.37-3.72-2.11-5.28.1-1.79.73-3.45.53-5.28l3.17-24.8Z"/>
          <path class="cls-65" d="M308.73,223.76c-.1.61.52.49.53.53.03.11,1.77,1.71.79,2.11-2.31-.78-4.77-1.57-7.12-2.11-6.29-1.45-9.95-2.78-15.83-5.28l21.63,4.75Z"/>
          <path class="cls-50" d="M319.29,185.24c1.3,7.25-.3,26.84-1.06,34.83-.03.34.03.71,0,1.06-2.3,2.02-3.29,6.03-4.75,8.44-.37.61-.51.5-.53.53-3.28-.98-9.08-2.49-10.03-5.8,2.36.54,4.82,1.33,7.12,2.11.98-.4-.76-2-.79-2.11l3.17-.26c1.47-14.66,3.91-29.34,4.75-44.06-.26,1.56,2.04,4.89,2.11,5.28Z"/>
          <path class="cls-54" d="M463.34,207.41l-2.11,1.06c-3.41-3.04-7.1-5.92-10.55-8.97-13.66-12.06-38.39-37-52.77-45.38-.09-.05-.84-1.4-1.32-1.58-3.23,2.44-6.11,5.36-9.23,7.92-16.59,13.58-32.43,28.09-48.55,42.21-1.28,1.12-3.15,2.22-4.22,3.17l-.26-1.06-1.58,1.58.26-2.11c11.95-10.88,23.82-21.98,35.88-32.72,9.16-8.15,18.54-16.11,27.7-24.27,22.16,20.12,45.2,39.37,66.75,60.16Z"/>
          <path class="cls-47" d="M463.34,207.41c1.8,1.73,5.15,3.35,6.86,5.28.74.83,2.84,3.78,3.17,4.75.45,1.35-.03,1.56,0,2.11-1.39-1.1-2.69-2.25-4.22-3.17-2.49-2.48-5.34-5.62-7.92-7.92l2.11-1.06Z"/>
          <path class="cls-57" d="M334.59,205.82c-3.95,3.47-11.49,11.64-15.83,13.72,1.97-7.2,9.1-10.62,14.25-15.3l-.26,2.11,1.58-1.58.26,1.06Z"/>
        </g>
        <g>
          <path class="cls-68" d="M407.41,297.64c-.07.25-.98,1.04-1.06,1.06-7.32,1.73-12.34,1.87-19.52-.53-.73-.24-.49-.52-.53-.53-4.34-1.51-8.99-4.38-13.19-6.33-.03-1.88,3.02,1,3.43,1.06.28.03,1.64-2.32,5.01.26.43.33-.58,1.02-.53,1.06,3.03,2.09,3.92.36,5.54.79,10.41,2.76,10.3,4.52,21.11.53,1.42-.52,1.97-2.06,2.11-2.11,9.33-3.67,32.81-13.69,40.63-20.58,1.9-1.67-.69-.83.26-3.17-.05,1.8.49.61,1.58,0,5-1.27,9.33-6.07,13.72-8.97,5.76-3.81,11.98-7.07,17.94-10.55v1.32c-23.51,18.91-49.58,35.09-77.57,46.44l1.06.26Z"/>
          <path class="cls-40" d="M465.45,244.87c.04,1.74-.32,6.58-.53,8.44-.14,1.22-.2,5.27-.53,6.07-.7,1.73-10.07,8.61-12.14,9.76-1.1.61-1.64,1.8-1.58,0,3.35-8.17,5.08-11.41,5.8-20.58.01-.17-.01-.35,0-.53,1.56.27,6.77-5.7,7.39-6.86,1.08,1.12,1.55,2.16,1.58,3.69Z"/>
          <path class="cls-39" d="M465.98,260.17c-4.39,2.9-8.72,7.7-13.72,8.97,2.07-1.15,11.44-8.03,12.14-9.76.32-.8.39-4.85.53-6.07l1.06,6.86Z"/>
          <path class="cls-64" d="M337.23,254.37c.08.53-1.09,1.14-1.06,1.32.46,2.43,3.29,6.4,4.22,8.71.67,1.65.81,3.6,2.11,5.01-.49.82-9.01-4.62-10.03-5.54-3.95-3.58-4.73-5.72-5.28-11.08.98-11.77-1.25-7.36-4.75-16.62-.76-2.02-2.88-15-4.22-15.04.03-.34-.03-.71,0-1.06.61.09.49-.51.53-.53,4.34-2.08,11.88-10.25,15.83-13.72,1.08-.94,2.94-2.04,4.22-3.17-3.44,5.98-9.95,9.23-14.77,13.98,1.1,12.38,3.3,21.24,8.97,32.19.57,1.09,2.92,5.23,4.22,5.54Z"/>
          <path class="cls-8" d="M390,162.55c-1.92,3.08-4.34,3.84-.53,6.33l-2.11,2.37c1.54.19,2.49.99,3.69,1.85-3.24-.57-5.66,1.16-8.44,2.64v-3.43l-1.32-.79-19.79,15.83c-16.41,10.08-23.57,18.45-25.86,37.99-.86,7.37-.17,14.83.53,22.16.22,2.29.7,4.58,1.06,6.86-1.3-.31-3.65-4.45-4.22-5.54-5.67-10.94-7.88-19.81-8.97-32.19,4.83-4.75,11.34-8,14.77-13.98,16.11-14.12,31.96-28.64,48.55-42.21.93.19,2.06,1.86,2.64,2.11Z"/>
          <path class="cls-10" d="M421.13,186.3l3.69-4.75c4.59,4.18,23.18,17.98,25.33,21.37,5.03,7.93,6.54,29.45,6.33,38.78-1.37-.11-1.23,3.41-1.58,5.28-.52,2.74-1.24,8.3-2.11,10.55-.1.25-.63,1.86-1.06,1.32.04-2.8.85-5.4,1.06-8.18,1.23-16.34.91-27.84-11.08-40.1.54,0,1.8.21,2.11-.26-2.73-2.62-7.72-5.98-11.61-6.07l-33.24-26.91c15.02,8.26,30.63,15.97,43.53,27.44,1.36.22-.46-2.03-.53-2.11-4.03-4.5-15.49-11.9-20.84-16.36Z"/>
          <path class="cls-8" d="M389.47,168.89c7.41,4.83,18.98,9.1,26.91,13.72,1.52,1.28,3.21,2.42,4.75,3.69,5.36,4.46,16.81,11.86,20.84,16.36.07.08,1.89,2.34.53,2.11-12.9-11.46-28.52-19.18-43.53-27.44-2.94-1.62-4.87-2.04-7.92-4.22-1.2-.86-2.15-1.66-3.69-1.85l2.11-2.37Z"/>
          <path class="cls-24" d="M432.21,204.24c3.89.09,8.88,3.44,11.61,6.07-.31.47-1.57.26-2.11.26-11.72.07-20.21.41-30.87,6.33-1.74-6.52,17.03-12.76,21.37-12.66Z"/>
          <path class="cls-25" d="M339.34,246.98c.14,1.04-.52,4.33.79,4.75,3.43-1.04,12.18-1.03,12.4,3.96.29,6.73-10.01,2.93-12.14,8.71-.93-2.31-3.77-6.28-4.22-8.71-.03-.17,1.14-.79,1.06-1.32-.36-2.28-.84-4.57-1.06-6.86l3.17-.53Z"/>
          <path class="cls-67" d="M452.79,250.68c-.21,2.78-1.01,5.38-1.06,8.18.43.55.96-1.07,1.06-1.32,4.16,6.19-6.87,3.43-9.23,1.06-5.19-5.2,4.39-9.5,9.23-7.92Z"/>
          <path class="cls-51" d="M382.61,175.75c-6.39,3.4-15.11,7.93-21.11,11.61l19.79-15.83,1.32.79v3.43Z"/>
          <path class="cls-61" d="M339.34,246.98l-3.17.53c-.7-7.33-1.39-14.79-.53-22.16,2.17-.26,1.39.48,1.58,1.85.94,6.54,1.21,13.23,2.11,19.79Z"/>
          <path class="cls-39" d="M332.48,263.87h-1.06c-1.55-1.13-3.01-2.52-4.75-3.69.94-2.41.32-4.93.53-7.39.55,5.36,1.33,7.5,5.28,11.08Z"/>
          <path class="cls-68" d="M456.48,241.71c-.05,2.09.15,4.25,0,6.33-.01.17.01.35,0,.53l-1.58-1.58c.36-1.87.21-5.39,1.58-5.28Z"/>
          <path class="cls-64" d="M469.15,216.38c1.53.92,2.83,2.07,4.22,3.17.38,8.26-3.62,18.1-7.92,25.33-.04-1.53-.5-2.57-1.58-3.69,3.42-6.47,2.61-17.58,4.22-24.8.16.11.88-.11,1.06,0Z"/>
          <path class="cls-8" d="M450.68,199.49c.88,1.48,1.19,3.49,2.37,4.75,2.77,2.96,11.51,9.87,15.04,12.14-1.61,7.22-.8,18.33-4.22,24.8-.61,1.16-5.83,7.13-7.39,6.86.15-2.08-.05-4.24,0-6.33.21-9.33-1.31-30.86-6.33-38.78-2.15-3.39-20.74-17.19-25.33-21.37-6.48-5.91-13.29-11.78-19.52-17.94-2.23-2.2-7.45-6.67-7.39-9.5,14.38,8.38,39.11,33.32,52.77,45.38Z"/>
          <path class="cls-62" d="M397.91,154.11c-.07,2.82,5.16,7.3,7.39,9.5-2.53,2.32-2.9,4.39-5.8,3.17-3.07-1.3-6.42-2.88-9.5-4.22-.58-.25-1.7-1.92-2.64-2.11,3.12-2.56,6-5.47,9.23-7.92.48.19,1.23,1.53,1.32,1.58Z"/>
          <path class="cls-55" d="M461.23,208.46c2.58,2.29,5.43,5.43,7.92,7.92-.18-.11-.89.11-1.06,0-3.52-2.26-12.27-9.18-15.04-12.14-1.18-1.26-1.49-3.27-2.37-4.75,3.45,3.05,7.14,5.93,10.55,8.97Z"/>
          <path class="cls-64" d="M399.49,166.77c5.16,5.74,10.99,10.87,16.89,15.83-7.93-4.62-19.5-8.89-26.91-13.72-3.82-2.49-1.39-3.25.53-6.33,3.08,1.34,6.43,2.92,9.5,4.22Z"/>
          <path class="cls-2" d="M424.82,181.55l-3.69,4.75c-1.54-1.28-3.23-2.41-4.75-3.69-5.89-4.96-11.73-10.09-16.89-15.83,2.9,1.23,3.28-.85,5.8-3.17,6.23,6.16,13.04,12.03,19.52,17.94Z"/>
          <g>
            <path class="cls-30" d="M391.05,173.11c3.04,2.18,4.97,2.6,7.92,4.22l33.24,26.91c-4.35-.1-23.11,6.15-21.37,12.66,10.66-5.92,19.15-6.26,30.87-6.33,11.99,12.26,12.31,23.76,11.08,40.1-4.85-1.58-14.42,2.71-9.23,7.92,2.37,2.38,13.4,5.14,9.23-1.06.87-2.25,1.59-7.82,2.11-10.55l1.58,1.58c-.72,9.17-2.46,12.41-5.8,20.58-.96,2.34,1.63,1.49-.26,3.17-7.82,6.89-31.3,16.91-40.63,20.58-.14.05-.69,1.59-2.11,2.11-10.8,4-10.69,2.23-21.11-.53-1.62-.43-2.51,1.3-5.54-.79-.05-.03.96-.73.53-1.06-3.37-2.58-4.74-.23-5.01-.26-.41-.05-3.46-2.93-3.43-1.06-10.52-4.88-20.75-10.28-30.61-16.36-.04-.94.95-1.91.53-2.9-.28-.65-9.88-6.91-11.61-8.18h1.06c1.02.92,9.54,6.36,10.03,5.54-1.3-1.41-1.44-3.36-2.11-5.01,2.12-5.78,12.43-1.97,12.14-8.71-.22-4.99-8.98-5-12.4-3.96-1.31-.42-.65-3.71-.79-4.75-.9-6.56-1.17-13.25-2.11-19.79-.2-1.37.59-2.1-1.58-1.85,2.29-19.54,9.44-27.92,25.86-37.99,6-3.68,14.71-8.21,21.11-11.61,2.78-1.48,5.21-3.21,8.44-2.64Z"/>
            <g>
              <path class="cls-24" d="M358.6,204.24c3.78-.35,26.04,7.22,22.95,11.87-11.76-3.84-22.94-7.49-35.62-5.01-2.44-.87,11.68-6.77,12.66-6.86Z"/>
              <g>
                <path class="cls-29" d="M408.99,273.89c-7.12,8.74-18.12,8.83-25.33,0,7.76-2.66,18.08-4.56,25.33,0Z"/>
                <path class="cls-39" d="M411.63,264.92c-.29.48-.32,3.21-.79,3.69-2.58,2.65-26.92,2.61-29.29-.26-.18-.21-.62-2.86-.53-3.43,9.77,3.47,20.75,2.27,30.61,0Z"/>
                <path class="cls-35" d="M381.02,264.92c-.09.57.35,3.22.53,3.43,2.37,2.87,26.7,2.91,29.29.26.47-.48.51-3.22.79-3.69.78-1.29,1.97-2.51,3.69-1.85-2.09,3.78-3.55,7.41-6.33,10.82-7.25-4.56-17.57-2.66-25.33,0-2.89-3.54-3.86-7.1-6.33-10.82,1.68-1.06,3.48,1.77,3.69,1.85Z"/>
              </g>
              <path class="cls-30" d="M391.84,249.62c17.04-2.89,7.07,10.54-.79,2.37l.79-2.37Z"/>
              <g>
                <path class="cls-39" d="M356.75,230.62c-.82,1.38-1.89,2.85-2.11,4.49-2.91,21.73,24.98,19.08,17.94-.79.47-3.76-3.19-5.12-4.49-7.92l8.71,5.8c.61,1.8,1.37,10.49,1.06,12.4-1.35,8.09-15.05,8.55-21.37,6.6-4.74-1.47-7.75-5.17-9.76-9.5-.82-9.37,5.09-17.05,15.04-15.83-2.72,1.59-3.37,1.99-5.01,4.75Z"/>
                <path class="cls-26" d="M376.8,232.21l-8.71-5.8c1.29,2.79,4.96,4.15,4.49,7.92-2.55-7.21-10.72-9.32-15.83-3.69,1.64-2.76,2.29-3.16,5.01-4.75-9.94-1.22-15.86,6.46-15.04,15.83-3.31-7.09-4.64-11.9,2.9-16.36s24.06-2.32,27.18,6.86Z"/>
                <g>
                  <path class="cls-66" d="M372.58,234.32c7.04,19.87-20.85,22.52-17.94.79.22-1.64,1.29-3.11,2.11-4.49,5.11-5.62,13.28-3.52,15.83,3.69Z"/>
                  <path class="cls-20" d="M360.45,232.73c-1.1,6.01,7.89,7.56,7.39,1.06,8.09-2.7,5.14,13.64.79,14.77-8.31,2.16-15.82-4.43-12.4-12.93.76-1.88,3.38-2.32,4.22-2.9Z"/>
                  <path class="cls-1" d="M367.83,233.79c.5,6.5-8.49,4.95-7.39-1.06.43-.3,1.77-2.47,2.37-2.64,2.38-.65,4.81,1.03,5.01,3.69Z"/>
                </g>
              </g>
              <g>
                <path class="cls-39" d="M445.4,241.71c-4.52,10.06-15.48,12.77-25.59,8.97-6.94-2.61-6.4-12.21-4.49-18.47.96-.91,8.33-6.61,8.97-5.01l-4.22,5.01c-3.02,5.36-2.4,16.4,4.49,17.94,11.99,2.68,16.18-10.97,10.82-19.52-1.63-2.6-2.59-3.75-5.8-4.49,9.9-2.21,16.74,6.15,15.83,15.57Z"/>
                <path class="cls-26" d="M445.4,241.71c.91-9.42-5.93-17.78-15.83-15.57,3.22.74,4.18,1.89,5.8,4.49-3.98-4.97-12.35-3.66-15.3,1.58l4.22-5.01c-.64-1.59-8.01,4.1-8.97,5.01,3.02-9.91,20.76-11.51,28.76-5.8,6.68,4.76,4.22,8.85,1.32,15.3Z"/>
                <g>
                  <path class="cls-66" d="M435.38,230.62c5.36,8.56,1.17,22.2-10.82,19.52-6.89-1.54-7.5-12.58-4.49-17.94s11.32-6.55,15.3-1.58Z"/>
                  <path class="cls-20" d="M424.29,235.37c.53.14,7.1,6.76,7.39-1.06,8.59-3,5.18,12.89-.26,14.25-.66.16-6.17.16-6.86,0-6.33-1.46-8.67-15.49-.26-13.19Z"/>
                  <path class="cls-1" d="M431.68,234.32c-.29,7.81-6.86,1.2-7.39,1.06-.91-6.34,7.61-7.16,7.39-1.06Z"/>
                </g>
              </g>
            </g>
          </g>
        </g>
      </g>
    </g>
  </g>
</svg>